<svg width="470" height="414" viewBox="0 0 470 414" fill="none" xmlns="http://www.w3.org/2000/svg">
<g clip-path="url(#clip0)">
<path fill-rule="evenodd" clip-rule="evenodd" d="M275.555 413.418C383.593 413.418 398.908 365.354 415.289 356.522C431.671 347.69 421.486 329.965 432.23 316.596C449.391 295.242 459.792 306.247 465.471 278.544C471.151 250.841 460.825 243.004 460.825 218.271C460.825 168.717 484.564 145.26 454.249 119.333C423.935 93.4054 373.313 96.4646 323.245 96.4646C230.316 96.4646 174.643 -30.9275 50.6977 7.2915C7.98331 20.4626 12.7042 38.4117 22.0897 101.843C26.1654 129.388 -4.6074 164.409 0.731821 195.712C10.4832 252.881 36.2373 245.126 84.8294 283.726C92.9814 290.201 104.871 290.134 113.758 296.776C128.658 307.91 129.616 325.224 157.47 336.902C202.385 355.733 198.575 413.418 275.555 413.418Z" fill="#7000FF"/>
<ellipse cx="69.0196" cy="265.845" rx="27.3146" ry="25.6853" fill="white"/>
<path fill-rule="evenodd" clip-rule="evenodd" d="M58.3074 174.266C53.651 162.637 57.7185 155.67 60.3257 146.574C62.5035 138.976 79.5348 126.635 87.3731 139.503C89.6791 143.289 88.7541 146.868 93.7939 150.195C105.994 158.249 99.3386 141.539 99.7923 137.315C100.014 135.254 98.2726 130.502 98.9207 128.514C99.6008 126.427 103.226 123.463 103.226 119.137C103.226 114.812 95.8523 113.146 93.7939 112.083C75.5029 102.64 63.8702 86.8659 69.6673 78.8606C77.7441 67.7071 109.398 85.256 118.909 86.8659C119.032 86.8868 120.731 78.0194 122.118 75.989C124.894 71.9266 127.962 67.9832 131.621 64.6947C133.261 63.2217 135.483 62.3124 137.667 62.0177C144.204 61.1357 150.891 60.4125 157.438 61.2113C159.751 61.4935 173.529 45.5479 178.901 40.4044C220.118 0.941416 302.743 49.0311 257.705 114.378C249.427 126.388 238.842 130.208 237.475 134.453C234.438 143.882 253.554 142.642 261.651 143.649C275.485 145.369 282.303 152.476 273.716 164.655C268.366 172.243 236.982 171.856 223.234 166.369C218.132 164.333 211.826 155.428 207.003 162.733C203.68 167.766 190.725 178.443 176.827 184.483C170.554 187.21 163.409 185.567 158.056 188.001C150.521 191.428 128.277 205.818 118.909 205.814C109.474 205.811 97.2646 194.456 95.8523 193.712C93.6993 192.576 77.0444 189.323 68.8167 176.626C66.3286 172.786 60.0119 178.523 58.3074 174.266Z" fill="white"/>
<ellipse cx="218.505" cy="106.436" rx="2.89348" ry="2.85211" fill="#FFB61D"/>
<circle cx="197.319" cy="100.482" r="2.80933" fill="#FFB61D"/>
<path fill-rule="evenodd" clip-rule="evenodd" d="M101.968 145.189C101.767 149.22 98.6572 153.584 94.6496 153.108C92.8408 151.016 91.4251 148.419 90.026 145.853C87.339 140.925 84.7131 136.108 79.4815 135.194C74.343 134.296 69.5577 138.076 66.3574 142.195C61.7224 148.161 58.7272 155.388 57.783 162.883C57.2279 167.29 59.035 173.401 63.45 172.916C68.493 172.362 72.0795 176.329 75.7272 180.364C79.1034 184.098 82.5321 187.891 87.2167 188.21C92.7947 188.591 97.351 191.933 101.963 195.316C105.044 197.575 108.149 199.853 111.6 201.278C118.092 203.961 125.579 203.442 132.207 201.113C138.834 198.783 144.732 194.771 150.314 190.506L150.606 190.282C153.654 187.952 156.843 185.512 160.632 184.999C180.007 182.374 198.028 171.01 208.745 154.658C223.941 166.805 245.186 170.956 263.836 165.423C267 164.484 270.185 163.225 272.531 160.904C274.878 158.583 276.209 154.979 275.055 151.886C273.794 148.504 270.024 146.693 266.441 146.258C264.477 146.019 262.497 146.09 260.516 146.16H260.516H260.516H260.516H260.516C258.883 146.219 257.249 146.277 255.622 146.162C245.771 145.465 237.568 138.671 230.109 132.198C240.916 128.883 249.679 120.556 255.465 110.844C261.251 101.133 264.352 90.0691 266.708 79.0126C267.948 73.1941 268.869 66.6395 265.544 61.7059C264.057 59.4977 261.875 57.8832 259.701 56.2744C257.253 54.4628 254.815 52.6583 253.388 50.0214C250.643 44.9491 245.293 41.9413 240.218 39.2013C226.937 32.0308 211.682 24.6509 197.369 29.4396C191.793 31.3049 186.977 34.8792 182.281 38.4167C174.484 44.291 166.13 51.1817 164.646 60.8309C151.887 55.1228 135.38 59.6815 127.359 71.1287C125.525 73.747 124.116 76.6343 122.709 79.5187C121.053 82.9146 119.398 86.3064 117.053 89.2502C107.632 84.9577 98.0325 81.056 88.2884 77.5585C83.9682 76.0078 78.8076 74.6374 75.0845 77.3219C72.0993 79.4744 71.1836 83.6993 72.0598 87.2738C72.9361 90.8482 75.2754 93.8784 77.784 96.5713C83.2264 102.413 89.7639 107.232 96.955 110.701C97.1864 110.813 97.4194 110.924 97.6532 111.035L97.6537 111.035L97.655 111.036C99.9066 112.109 102.221 113.211 103.721 115.18C105.376 117.354 105.479 120.992 103.158 122.434C99.7302 124.565 99.0991 129.345 99.8017 133.319C100.042 134.677 100.394 136.022 100.746 137.366C101.424 139.954 102.101 142.535 101.968 145.189ZM195.028 166.441C186.391 175.51 174.237 180.816 161.809 182.367C149.381 183.918 136.691 181.901 124.82 177.912C128.013 177.91 130.322 173.729 128.623 171.025C122.081 178.652 112.106 182.224 102.601 185.486C94.0148 188.433 83.7512 186.292 77.4438 179.763C71.1365 173.233 69.4296 162.52 73.8653 154.599C75.7933 151.156 79.0635 148.159 82.9951 147.821C86.9267 147.483 91.1602 150.743 90.7955 154.672C88.6078 154.292 86.3054 156.15 86.2153 158.369C94.679 157.457 102.636 152.608 107.325 145.503C108.943 143.05 110.173 140.379 111.404 137.706C112.23 135.911 113.057 134.115 114.003 132.383C116.356 128.073 119.735 123.964 124.417 122.483C128.175 121.294 132.237 121.954 136.122 122.623L153.377 125.599C154.668 124.484 152.577 122.697 150.907 122.348C145.514 121.221 140.046 120.527 134.577 119.832L134.577 119.832L134.577 119.832L134.577 119.832L134.577 119.832C129.506 119.188 124.434 118.544 119.422 117.555C109.005 115.5 98.5341 111.741 90.9516 104.307C96.0949 101.348 100.008 96.3206 101.614 90.6082C101.939 89.4526 101.165 87.5542 100.226 88.3027C99.1539 92.011 97.9917 95.8786 95.3052 98.6506C92.6187 101.423 87.9033 102.64 84.8627 100.262C80.9154 97.1749 76.7653 93.8072 75.2043 89.0454C73.6433 84.2835 76.1127 77.8884 81.0898 77.3046C83.3237 77.0425 85.5076 77.9656 87.5677 78.8686L108.351 87.979C114.537 90.6905 120.815 93.4291 127.497 94.413C132.188 95.1038 136.959 94.9099 141.698 94.7145L155.13 94.1604C155.679 94.1378 156.242 94.1121 156.748 93.8964C158.097 93.3207 158.555 91.6724 158.853 90.2357C162.457 72.8422 167.3 54.4866 180.402 42.4919C186.265 37.1247 193.568 33.3457 201.335 31.6599C208.992 29.9982 217.44 30.4867 224.032 34.7214C212.974 35.5353 202.236 40.1984 194.093 47.7233C190.671 44.0708 184.303 47.0563 181.574 51.2516C177.343 57.7549 177.42 66.7889 181.761 73.2193C185.414 78.6321 186.769 85.0905 188.127 91.5639C189.375 97.5132 190.626 103.475 193.666 108.65C198.476 116.836 207.432 122.091 216.785 123.72C226.139 125.349 235.836 123.647 244.726 120.314C234.776 130.238 218.882 133.67 205.723 128.737C204.764 128.377 203.81 127.975 202.854 127.573C199.831 126.3 196.797 125.022 193.554 125.06C195.454 127.072 197.881 128.583 200.525 129.399C197.476 134.52 194.277 139.551 190.934 144.485C190.507 145.116 190.02 145.789 189.288 146.002C188.472 146.24 187.621 145.834 186.877 145.423C180.731 142.026 175.222 137.48 170.719 132.09L161.712 143.047C166.334 148.697 171.738 153.707 177.722 157.889C169.758 167.727 157.692 174.136 145.081 175.225C158.135 175.89 171.35 169.767 179.283 159.378C184.306 162.198 189.582 164.565 195.028 166.441ZM236.311 70.097C239.196 66.9516 240.265 62.4589 240.018 58.1982C239.772 53.9375 238.339 49.8399 236.753 45.8778C240.885 45.388 245.083 46.9469 248.374 49.4924C251.665 52.038 254.138 55.5017 256.165 59.1351C258.624 63.5394 260.508 68.3019 261.326 73.2791C263.252 84.9984 259.141 96.9475 253.288 107.282C252.152 109.289 250.929 111.282 249.271 112.884C247.6 114.497 245.545 115.657 243.44 116.635C234.75 120.672 224.754 121.838 215.368 119.907C221.36 114.919 225.591 108.046 228.286 100.731C230.981 93.4153 232.214 85.64 232.924 77.8763L232.928 77.8328C233.107 75.8751 233.295 73.8176 234.411 72.2009C234.78 71.6657 235.238 71.2017 235.695 70.7374L235.696 70.7369L235.696 70.7367C235.904 70.5257 236.112 70.3147 236.311 70.097ZM225.469 102.433C222.884 108.48 218.878 114.033 213.448 117.744C212.812 118.179 212.13 118.598 211.365 118.688C210.689 118.767 210.013 118.581 209.365 118.376C204.748 116.919 200.386 114.336 197.424 110.506C196.35 109.117 195.472 107.584 194.69 106.011C188.989 94.5573 188.431 80.6605 193.194 68.7859C193.421 68.2187 193.747 67.5818 194.346 67.4629C195.122 67.309 195.717 68.1022 196.152 68.7618C199.71 74.1533 206.363 76.8828 212.817 77.1655C219.27 77.4482 225.619 75.614 231.738 73.5456C230.623 76.2728 230.339 79.244 230.057 82.1871C230.022 82.5577 229.987 82.9279 229.95 83.297C229.294 89.8411 228.054 96.3858 225.469 102.433ZM224.155 46.2528C227.457 45.5021 231.31 45.2955 233.834 47.5543C234.649 48.2839 235.254 49.2196 235.752 50.1934C238.877 56.3008 237.653 64.3447 232.853 69.246C227.303 74.9121 218.52 75.8463 210.617 75.1737C207.781 74.9323 204.865 74.496 202.445 72.9997C199.312 71.0635 197.458 67.6519 195.742 64.3936C203.357 55.8848 213.021 48.7839 224.155 46.2528ZM250.863 148.968C249.826 151.584 248.781 154.235 248.441 157.028C248.102 159.822 248.544 162.819 250.243 165.062C236.146 165.842 221.82 161.495 210.534 153.013C214.173 147.862 217.047 142.172 219.033 136.186C219.817 133.821 222.811 132.835 225.241 133.382C227.479 133.886 229.357 135.322 231.19 136.722L231.443 136.916L231.523 136.976L231.663 137.082C237.663 141.638 244.276 145.311 250.863 148.968ZM152.356 184.692C150.132 187.195 147.475 189.272 144.761 191.232C139.096 195.323 132.918 199.041 126.032 200.229C115.94 201.971 105.038 197.618 98.9202 189.406L120.931 181.195C121.458 180.998 122.004 180.799 122.566 180.83C122.883 180.848 123.188 180.939 123.494 181.031C123.697 181.091 123.901 181.152 124.109 181.191C124.816 181.325 125.529 181.208 126.245 181.09C126.69 181.017 127.137 180.943 127.584 180.93C129.232 180.88 130.746 181.633 132.244 182.378C132.624 182.567 133.003 182.756 133.384 182.931C139.22 185.615 145.95 185.18 152.356 184.692ZM120.574 90.5158C120.419 90.1689 120.583 89.7696 120.747 89.4267C125.254 79.9861 131.217 71.2422 138.361 63.599C143.385 70.5754 146.729 78.7534 148.032 87.2514C148.292 88.9501 148.011 91.2993 146.306 91.5118C138.132 92.5307 129.814 92.3923 121.679 91.1019C121.248 91.0337 120.752 90.9134 120.574 90.5158ZM151.361 89.9334C149.678 80.6806 146.184 71.7608 141.134 63.8266C145.408 61.5766 150.46 61.5398 155.29 61.5549C158.34 61.5645 161.67 61.6719 163.995 63.647L157.965 81.4384C156.941 84.4588 155.905 87.5639 156.034 90.7503L152.222 90.8115C152.086 90.8137 151.946 90.815 151.821 90.7627C151.516 90.6353 151.42 90.2585 151.361 89.9334ZM200.403 135.464C201.415 133.741 202.38 131.901 202.482 129.906C207.042 131.957 212.064 132.973 217.063 132.857C217.848 132.839 217.82 134.048 217.498 134.764C216.525 136.931 215.55 139.099 214.424 141.19C213.268 143.336 211.955 145.394 210.644 147.449L207.502 152.375C207.071 153.049 206.627 153.738 205.988 154.219C204.273 155.509 201.824 154.888 199.866 154.009C196.619 152.55 193.63 150.518 191.079 148.036C194.622 144.192 197.754 139.97 200.403 135.464ZM82.478 139.72C83.9889 141.243 84.9763 143.196 85.939 145.113L81.4062 145.76C79.8959 145.975 78.3474 146.203 77.0125 146.942C75.7138 147.66 74.7121 148.812 73.8307 150.006C70.1442 155 68.101 161.187 68.0881 167.395C68.0834 169.637 65.4335 171.236 63.2646 170.668C61.0958 170.1 59.6224 167.945 59.2475 165.735C58.8726 163.524 59.4006 161.264 60.0628 159.122C62.3931 151.584 66.5617 144.464 72.7292 139.543C73.9076 138.603 75.2096 137.723 76.6982 137.485C78.8169 137.146 80.967 138.197 82.478 139.72ZM272.825 152.339C273.349 153.012 273.738 153.833 273.714 154.686C273.683 155.789 272.985 156.756 272.232 157.562C267.856 162.251 261.132 163.848 254.763 164.6C254.342 164.65 253.902 164.694 253.509 164.54C253.185 164.414 252.925 164.165 252.694 163.905C251.158 162.177 250.549 159.761 250.674 157.452C250.798 155.143 251.595 152.919 252.588 150.83C252.796 150.39 253.039 149.928 253.465 149.692C253.805 149.504 254.21 149.489 254.599 149.479L262.307 149.277C264.205 149.227 266.123 149.179 267.981 149.571C269.839 149.962 271.659 150.84 272.825 152.339ZM186.917 79.5055C183.777 73.6859 181.427 67.4399 179.953 60.9931L181.222 57.6038C182.792 54.5647 184.771 51.7372 187.088 49.2214C188.032 48.1969 189.669 48.0836 190.971 48.5772C192.274 49.0709 193.322 50.0525 194.333 51.0107L198.884 55.3223C199.02 55.4505 199.161 55.5889 199.206 55.7698C199.291 56.1102 199.01 56.422 198.755 56.6637C196.624 58.69 194.731 60.9745 193.212 63.4928C190.918 67.2993 189.516 71.5649 188.134 75.7891L186.917 79.5055ZM198.549 46.8198C207.815 41.8571 217.95 37.1871 228.402 38.3039C233.866 38.8878 239.093 41.0617 243.644 44.1411C230.606 40.7895 216.072 43.881 205.527 52.2492C203.897 53.5426 201.451 54.9474 200 53.4562C199.627 53.0734 199.384 52.5369 199.146 52.0142C198.766 51.1771 198.402 50.3753 197.55 50.2969C196.737 50.2222 196.376 49.1197 196.721 48.38C197.065 47.6403 197.829 47.2051 198.549 46.8198ZM173.094 137.59C174.923 139.348 176.937 140.899 178.946 142.447L187.064 148.699C184.564 150.902 182.118 153.166 179.729 155.489C174.042 152.118 168.965 147.72 164.818 142.571C167.088 140.206 169.267 137.755 171.349 135.223C171.676 136.157 172.38 136.905 173.094 137.59ZM120.897 120.678C116.623 124.018 112.204 127.533 109.852 132.421C109.393 133.377 109.013 134.382 108.635 135.385L108.635 135.385C107.829 137.519 107.026 139.645 105.464 141.269C104.772 141.065 104.5 140.249 104.331 139.548L102.705 132.782C102.485 131.87 102.264 130.931 102.389 130.001C102.513 129.075 102.97 128.231 103.418 127.411L108.191 118.69C108.297 118.495 108.407 118.296 108.578 118.154C109 117.804 109.625 117.915 110.158 118.046L120.897 120.678ZM190.338 150.639C193.253 153.636 196.876 155.94 200.827 157.308C201.565 156.613 202.993 156.997 203.285 157.968C201.925 159.732 200.433 161.393 198.824 162.933C198.106 163.621 196.955 163.476 195.986 163.253C191.251 162.166 186.691 160.325 182.53 157.819C182.252 157.652 181.938 157.414 181.966 157.09C181.984 156.872 182.156 156.703 182.317 156.554L188.159 151.174C188.772 150.609 189.758 150.041 190.338 150.639ZM264.933 75.4685C264.879 76.1279 264.786 76.8637 264.271 77.2785C264.266 72.0991 262.982 66.9254 260.564 62.3454C260.125 61.5146 259.649 60.7027 259.12 59.9264C259.088 59.8791 259.056 59.8318 259.023 59.7845L258.914 59.6266C258.38 58.8562 257.834 58.0678 257.704 57.148L263.965 63.6881C264.541 64.2898 265.133 64.9176 265.405 65.7049C265.668 66.464 265.605 67.292 265.54 68.0926L264.933 75.4685ZM257.74 67.1573L256.322 65.3702C254.762 63.4041 252.848 61.2573 250.339 61.2546C248.882 61.253 247.543 61.9988 246.279 62.7234L244.316 63.8491C243.78 64.1566 243.229 64.4765 242.851 64.9656C241.761 66.376 242.557 68.4369 243.587 69.8917C244.3 70.8983 245.155 71.8649 246.289 72.3494C247.757 72.9761 249.445 72.6989 250.983 72.2746C253.089 71.6937 255.125 70.8556 257.03 69.7848C257.639 69.4424 258.312 68.9408 258.281 68.2428C258.263 67.8317 257.996 67.4796 257.74 67.1573ZM245.354 68.5365C245.11 68.1482 244.858 67.7332 244.854 67.2746C244.846 66.3776 245.741 65.7758 246.528 65.3463L249.326 63.8201C249.75 63.5892 250.19 63.3532 250.671 63.3208C251.152 63.2884 251.686 63.5199 251.848 63.974C252.325 65.314 253.501 66.3828 254.88 66.7304C255.327 66.8429 255.47 67.4611 255.259 67.8703C255.048 68.2796 254.616 68.5188 254.204 68.7235C252.729 69.4553 251.187 70.0521 249.604 70.5039C248.969 70.685 248.297 70.8434 247.655 70.6908C246.605 70.4411 245.928 69.4505 245.354 68.5365ZM225.448 82.3511C222.672 82.6743 222.145 87.6781 223.434 90.3469C223.699 90.896 224.114 91.4614 224.719 91.5381C225.753 91.6694 226.324 90.3934 226.553 89.3763L226.558 89.3527C226.86 88.0124 228.207 82.03 225.448 82.3511ZM211.135 88.9151C211.69 87.6206 211.875 86.17 211.663 84.7776C211.564 84.1307 211.37 83.4739 210.938 82.9826C210.505 82.4913 209.791 82.2057 209.175 82.4272C208.618 82.6276 208.267 83.1728 208.004 83.703C207.072 85.575 206.701 87.7212 206.95 89.7972C207.065 90.7629 208.282 91.2907 209.206 90.9853C210.129 90.6799 210.752 89.809 211.135 88.9151ZM219.316 85.9526C219.747 85.5956 220.291 86.244 220.465 86.7754C221.04 88.5222 221.516 90.3015 221.889 92.102C222.126 93.2398 222.321 94.4219 222.069 95.5563C221.714 97.1559 220.499 98.457 219.088 99.2903C217.677 100.124 216.071 100.555 214.488 100.977C214.07 101.089 213.545 101.168 213.274 100.83C213.045 100.543 213.158 100.093 213.419 99.8347C213.675 99.5811 214.032 99.4641 214.375 99.3515L214.395 99.3449C216.863 98.5342 219.5 97.0711 220.075 94.5378C220.39 93.1449 220.006 91.7456 219.62 90.3404C219.269 89.0606 218.916 87.7758 219.089 86.4866C219.116 86.2902 219.164 86.079 219.316 85.9526ZM202.082 80.2546C201.432 79.3545 201.952 77.9866 202.895 77.3996C203.837 76.8125 205.028 76.8205 206.129 76.9626C207.444 77.1324 208.737 77.4667 209.969 77.9554C210.231 78.0594 210.514 78.1919 210.629 78.4493C210.843 78.9261 210.29 79.4481 209.767 79.4477C209.347 79.4473 208.965 79.2449 208.588 79.0447C208.497 78.9963 208.406 78.9479 208.315 78.9026C206.258 77.8821 203.531 78.4736 202.082 80.2546ZM225.786 79.9445C226.764 79.782 227.8 80.0077 228.621 80.5618C228.965 80.7935 229.456 80.4039 229.458 79.9898C229.46 79.5756 229.151 79.2273 228.826 78.9712C228.125 78.4196 227.252 78.0895 226.361 78.0392C225.786 78.0067 225.15 78.1179 224.78 78.5588C224.41 78.9996 224.521 79.8271 225.076 79.9806C225.274 80.0354 225.482 79.9984 225.686 79.962L225.687 79.9619L225.687 79.9619L225.687 79.9618C225.72 79.9559 225.753 79.95 225.786 79.9445ZM213.656 105.339C213.931 105.183 214.294 105.455 214.335 105.768C214.376 106.081 214.197 106.381 213.993 106.622C212.968 107.831 211.202 108.204 209.643 107.92C208.083 107.636 206.685 106.798 205.37 105.914C204.751 105.498 204.142 105.068 203.542 104.625C202.921 104.166 202.258 103.604 202.184 102.835C202.11 102.066 203.095 101.291 203.657 101.821C205.04 103.123 206.454 104.446 208.174 105.252C209.893 106.057 212.002 106.272 213.656 105.339ZM184.051 111.505C178.291 98.9834 175.887 84.9363 177.158 71.2121C177.179 70.9776 177.209 70.7265 177.364 70.5491C177.583 70.2989 178.031 70.3093 178.238 70.5695C178.164 78.1191 178.094 85.7141 179.326 93.1628C180.558 100.611 183.175 107.981 187.953 113.827C188.096 114.001 188.24 114.174 188.385 114.348L188.385 114.349L188.386 114.349C189.208 115.335 190.037 116.329 190.503 117.517C187.396 117.457 185.35 114.328 184.051 111.505ZM189.701 54.9627C189.595 54.8476 189.471 54.7459 189.327 54.6838C188.911 54.5045 188.424 54.6883 188.06 54.9575C186.61 56.0308 186.605 58.5406 188.05 59.6204C188.755 59.0198 189.478 58.3958 189.891 57.567C190.304 56.7381 190.33 55.6429 189.701 54.9627ZM202.203 68.1855C203.766 69.454 205.546 70.4532 207.443 71.1258C213.565 73.2966 220.445 71.9337 226.352 69.2335C227.255 68.821 228.406 69.0385 229.096 69.7517C225.303 72.4547 220.656 73.9404 215.999 73.9394C214.971 73.9391 213.946 73.8688 212.922 73.7794C210.829 73.5964 208.719 73.3282 206.75 72.5949C204.78 71.8617 202.941 70.6212 201.826 68.8398L202.203 68.1855ZM268.865 150.69C268.804 150.898 268.972 151.098 269.126 151.251L271.452 153.559C271.706 152.895 271.421 152.122 270.933 151.606C270.445 151.089 269.786 150.774 269.144 150.472C269.018 150.477 268.9 150.569 268.865 150.69Z" fill="#00160A"/>
<ellipse cx="402" cy="98.4893" rx="38.1267" ry="38.1267" fill="white"/>
<ellipse cx="282.784" cy="314.785" rx="110.788" ry="94.6912" fill="white"/>
<path fill-rule="evenodd" clip-rule="evenodd" d="M188.861 366.416L190.104 367.316C187.298 369.834 183.076 366.703 180.709 363.768C176.903 359.049 173.04 354.033 171.882 348.082C171.223 344.696 171.487 341.207 171.753 337.767L172.827 323.899C173.303 317.753 173.78 311.597 174.844 305.525C177.723 289.093 184.97 273.448 195.642 260.626L195.749 260.497C197.634 258.234 199.692 255.762 199.656 252.828C199.579 246.62 203.154 240.818 207.848 236.754C212.542 232.691 218.29 230.082 223.95 227.53C226.514 226.373 229.862 225.337 231.849 227.328C235.936 231.423 242.757 228.814 248.156 226.735C254.784 224.182 261.864 222.806 268.966 222.691C269.173 222.688 269.381 222.685 269.591 222.682C273.855 222.621 278.655 222.552 281.256 219.249C282.913 217.145 286.08 217.267 288.738 217.585L307.022 219.772C308.42 219.939 310.094 220.32 310.535 221.657C311.716 225.24 315.882 226.703 319.495 227.792C332.337 231.664 344.89 236.921 355.792 244.735C366.695 252.548 375.91 263.058 380.799 275.549C372.85 264.682 364.694 253.612 353.661 245.895C350.503 243.687 347.145 241.78 343.737 239.983C335.692 235.742 327.319 232.087 318.62 229.432C278.241 217.107 231.533 228.538 201.409 258.116C197.041 262.405 192.946 267.129 190.468 272.727L193.741 273.742C188.554 276.06 184.702 281.139 183.868 286.758C185.956 283.183 188.93 280.131 192.451 277.953C191.443 281.319 188.823 284.023 186.254 286.674C182.98 290.053 179.79 293.345 180.129 297.81C181.683 293.73 185.598 290.651 189.929 290.102C183.06 296.814 175.689 304.691 175.908 314.292C178.413 308.748 182.668 304.01 187.912 300.924L180.363 311.068C177.508 314.905 174.501 319.289 175.154 324.026C177.638 319.569 181.188 315.711 185.425 312.868C183.385 317.507 180.472 321.762 176.884 325.342C180.296 324.93 183.581 323.516 186.227 321.322C185.118 322.871 184.118 324.618 184.081 326.522C184.044 328.426 185.277 330.469 187.162 330.743C187.732 329.467 189.522 328.928 190.702 329.677C187.125 333.157 187.088 339.605 190.625 343.125C190.939 341.471 192.335 340.076 193.99 339.763C191.352 344.375 190.878 350.167 192.73 355.147C193.291 352.325 194.856 349.714 197.08 347.89C195.798 354.583 192.963 360.974 188.861 366.416ZM187.299 364.283C189.532 364.261 190.921 361.762 191.154 359.541C191.432 356.884 190.772 354.228 190.117 351.638L186.232 336.273C185.501 336.504 185.416 337.3 185.327 338.133C185.252 338.844 185.173 339.583 184.686 340.021C183.703 338.798 183.591 336.947 184.421 335.615C185.258 334.27 184.71 332.386 183.523 331.338C182.335 330.29 180.682 329.934 179.099 329.881C178.243 329.853 177.333 329.919 176.633 330.412C175.933 330.904 175.565 331.952 176.062 332.649C177.542 334.723 178.656 337.059 179.336 339.515C179.387 339.698 179.437 339.884 179.486 340.071C179.824 341.346 180.172 342.658 181.105 343.567C181.826 344.269 182.01 345.342 182.156 346.338L183.343 354.411C183.559 355.881 183.775 357.38 183.528 358.844C183.281 360.309 182.489 361.761 181.161 362.426L185.403 363.869C186.018 364.078 186.649 364.29 187.299 364.283ZM233.536 231.949C232.7 232.126 231.999 231.392 231.4 230.765L231.332 230.693C230.718 230.052 229.664 229.492 229.017 230.1C221.489 237.183 212.921 243.16 203.674 247.78C201.996 248.619 201.771 250.88 201.769 252.756C201.769 253.383 202.369 254.262 202.76 253.772C204.667 251.383 207.146 249.529 209.597 247.702C216.492 242.561 223.47 237.372 231.375 233.982C232.334 233.571 233.457 232.99 233.536 231.949ZM309.206 223.983C308.779 222.982 307.566 222.621 306.496 222.42C303.582 221.871 300.616 221.622 297.653 221.373C293.584 221.032 289.52 220.691 285.604 219.574C284.349 219.216 283.276 220.487 282.588 221.596C284.652 221.381 286.729 221.292 288.803 221.33C292.414 221.397 296.006 221.846 299.589 222.296C301.41 222.524 303.244 222.755 304.99 223.32C305.193 223.386 305.398 223.456 305.605 223.527C306.797 223.936 308.029 224.359 309.206 223.983ZM270.66 239.373C271.485 239.562 272.271 240.178 272.395 241.016C272.518 241.851 271.947 242.665 271.218 243.091C270.488 243.516 269.626 243.635 268.789 243.746L266.27 244.08C266.017 244.113 265.757 244.149 265.537 244.279C264.904 244.654 264.948 245.67 265.466 246.193C265.983 246.716 266.778 246.846 267.514 246.845C270.941 246.838 274.186 244.372 275.233 241.108C275.481 240.333 275.613 239.471 275.305 238.718C275.149 238.336 274.888 238.004 274.598 237.71C273.25 236.344 271.241 235.742 269.327 235.877C267.413 236.012 265.592 236.828 264.034 237.949C263.287 238.486 262.575 239.115 262.151 239.932C261.727 240.748 261.636 241.784 262.111 242.572C262.292 242.873 262.571 243.139 262.918 243.195C263.264 243.252 263.664 243.028 263.707 242.68C263.826 241.712 264.533 240.895 265.375 240.402C266.216 239.91 267.187 239.694 268.144 239.503C268.974 239.337 269.835 239.185 270.66 239.373ZM203.112 287.251C204.054 281.68 208.554 277.151 213.799 275.053C216.69 273.896 219.998 273.389 222.905 274.504C223.622 274.779 224.317 275.158 224.834 275.727C225.319 276.26 225.625 276.934 225.855 277.618C227.332 281.999 225.833 287.065 222.66 290.427C219.487 293.788 214.868 295.552 210.257 295.883C208.78 295.989 207.193 295.929 205.973 295.089C204.753 294.25 204.148 292.385 205.087 291.24C205.531 291.261 205.771 291.657 206.016 292.063C206.137 292.264 206.26 292.467 206.41 292.629C206.922 293.18 207.769 293.22 208.52 293.188C211.79 293.05 215.109 292.24 217.77 290.336C220.431 288.431 222.343 285.321 222.287 282.049C222.269 280.995 222.04 279.916 221.443 279.047C220.462 277.621 218.609 276.978 216.882 277.091C215.155 277.205 213.536 277.971 212.065 278.884C210.13 280.085 208.342 281.594 207.129 283.522C205.916 285.449 205.323 287.832 205.836 290.051C205.383 290.869 204.035 290.706 203.478 289.954C202.922 289.203 202.956 288.173 203.112 287.251ZM233.223 333.164C230.831 334.703 228.847 337.112 228.479 339.933C228.18 342.215 228.945 344.487 229.699 346.661C230.287 348.358 230.895 350.092 232.015 351.495C234.038 354.031 237.389 355.08 240.592 355.595C241.464 355.735 242.787 355.341 242.476 354.515C239.095 354.452 235.769 352.885 233.568 350.317C231.368 347.749 230.329 344.223 230.785 340.872C230.881 340.167 231.042 339.465 231.338 338.818C231.937 337.509 233.054 336.503 234.263 335.722C236.865 334.04 240.033 333.252 243.12 333.519C246.096 333.776 249.069 335.08 250.885 337.451C252.702 339.823 253.135 343.321 251.532 345.841C251.272 346.251 251.081 346.975 251.559 347.061C254.14 345.671 255.572 342.604 255.428 339.676C255.283 336.748 253.737 334.008 251.613 331.988C250.438 330.87 249.046 329.926 247.47 329.547C245.391 329.046 243.217 329.562 241.15 330.106C238.399 330.83 235.615 331.625 233.223 333.164ZM350.7 336.801C342.05 333.572 332.651 332.368 323.466 333.313C319.615 333.71 315.752 334.496 312.29 336.228C305.757 339.498 301.086 346.228 300.309 353.492C299.532 360.756 302.673 368.322 308.366 372.9C310.525 374.636 312.976 375.935 315.43 377.237C317.105 378.125 318.781 379.015 320.368 380.044C320.821 380.477 319.801 380.909 319.205 380.717C313.657 378.926 308.269 376.202 304.312 371.921C299.497 366.713 297.149 359.317 298.078 352.286C299.007 345.255 303.194 338.722 309.195 334.943C313.942 331.954 319.618 330.694 325.224 330.492C330.83 330.29 336.42 331.091 341.964 331.95C345.426 332.486 349.486 333.515 350.7 336.801ZM259.686 347.639C259.293 346.739 257.714 346.505 257.425 347.443C255.59 353.414 249.764 357.929 243.523 358.215C242.113 358.28 240.701 358.149 239.296 358.013C236.269 357.72 233.147 357.374 230.497 355.884C226.685 353.741 224.391 349.34 224.364 344.967C224.337 340.595 226.412 336.345 229.561 333.311C229.124 332.087 227.247 332.678 226.315 333.584C221.15 338.605 220.263 347.271 223.888 353.496C227.512 359.721 235.108 363.21 242.267 362.419C249.427 361.628 255.891 356.834 259.22 350.445C259.673 349.575 260.078 348.539 259.686 347.639ZM214.85 377.876C213.684 382.348 213.573 387.093 214.529 391.615C214.958 393.643 215.005 394.761 215.014 394.97L215.014 394.97C215.015 394.994 215.015 395.006 215.016 395.006C215.016 395.006 215.017 394.994 215.018 394.97C215.027 394.761 215.078 393.639 215.517 391.607C216.495 387.077 216.263 382.29 214.85 377.876ZM221.046 380.581C219.389 384.054 219.595 388.352 221.575 391.651C222.02 392.392 222.358 392.995 222.607 393.439L222.607 393.439C222.942 394.037 223.117 394.349 223.177 394.328C223.243 394.306 223.173 393.887 223.026 393.01L223.026 393.01C222.967 392.658 222.896 392.233 222.816 391.73L221.046 380.581ZM225.712 385.016C225.009 387.234 225.526 389.798 227.034 391.569C228.574 393.378 229.077 393.958 228.608 391.629C228.129 389.252 227.134 386.98 225.712 385.016ZM360.726 359.792C358.611 368.285 351.853 374.72 345.301 380.523C345.6 381.169 346.568 380.937 347.188 380.588C353.825 376.853 359.195 370.765 361.645 363.555C364.095 356.344 363.486 348.06 359.619 341.499C359.294 340.949 358.88 340.362 358.253 340.239C357.626 340.117 356.903 340.844 357.272 341.366C360.989 346.632 362.284 353.538 360.726 359.792ZM265.31 283.11C265.294 281.766 265.313 280.312 266.124 279.241C267.241 277.766 269.361 277.611 271.21 277.586C272.036 277.574 272.872 277.564 273.675 277.755C275.385 278.161 276.747 279.424 277.961 280.695C278.23 280.977 278.516 281.324 278.45 281.707C278.367 282.183 277.771 282.402 277.298 282.305C276.984 282.24 276.702 282.084 276.419 281.927C276.276 281.848 276.134 281.769 275.987 281.701C274.286 280.921 272.287 281.776 270.759 282.857C270.519 283.027 270.26 283.245 270.254 283.539C270.248 283.835 270.502 284.064 270.74 284.238C272.804 285.75 275.447 286.451 277.989 286.159C278.597 286.089 279.311 285.866 279.469 285.275C279.531 285.044 279.507 284.772 279.484 284.51C279.445 284.071 279.409 283.657 279.778 283.505C279.97 283.425 280.188 283.483 280.388 283.541C281.764 283.941 283.373 284.584 283.639 285.992C283.716 286.399 283.661 286.823 283.532 287.216C283.153 288.367 282.097 289.266 280.9 289.457C280.369 289.541 279.826 289.495 279.29 289.449C277.89 289.329 276.488 289.209 275.1 288.985C272.552 288.575 270.061 287.815 267.717 286.735C266.903 286.36 266.058 285.899 265.646 285.104C265.333 284.5 265.318 283.79 265.31 283.11ZM317.643 249.979C316.824 247.766 314.845 246.019 312.547 245.481C311.836 245.315 311.033 245.274 310.43 245.686C309.827 246.098 309.62 247.102 310.195 247.552C310.752 247.989 310.415 249.016 309.734 249.21C309.053 249.405 308.321 248.942 307.98 248.321C307.64 247.7 307.604 246.962 307.6 246.254C307.595 245.309 307.681 244.254 308.379 243.617C308.645 243.375 308.977 243.218 309.305 243.071C310.665 242.463 312.169 241.948 313.623 242.274C315.008 242.585 316.112 243.608 317.078 244.648C317.87 245.501 318.619 246.394 319.321 247.322C319.94 248.14 320.535 249.013 320.767 250.012C321 251.011 320.799 252.17 320.027 252.846C319.272 253.507 318.11 253.563 317.193 253.155C316.383 252.794 315.691 252 315.751 251.115C315.812 250.23 316.899 249.497 317.643 249.979ZM324.951 312.209C326.982 312.151 328.875 310.587 329.314 308.603C329.581 307.396 329.251 305.961 328.2 305.312C327.432 304.838 326.466 304.873 325.565 304.93C324.318 305.01 323.023 305.119 321.939 305.742C320.856 306.365 320.05 307.655 320.389 308.858C320.941 310.814 322.92 312.268 324.951 312.209ZM325.212 309.279C324.819 309.384 324.26 309.283 324.224 308.878C324.209 308.71 324.3 308.55 324.403 308.417C324.981 307.669 326.08 307.379 326.951 307.744C326.648 308.485 325.986 309.07 325.212 309.279ZM326.261 279.222C325.93 278.458 326.571 277.569 327.35 277.276C327.974 277.042 328.651 277.066 329.324 277.09C329.491 277.096 329.658 277.102 329.823 277.104C330.655 277.115 331.575 276.976 332.115 276.343C332.305 276.12 332.434 275.791 332.289 275.536C332.137 275.27 331.779 275.224 331.473 275.208C329.352 275.098 326.848 275.163 325.626 276.899C325.363 277.273 324.72 277.146 324.474 276.762C324.229 276.377 324.285 275.872 324.425 275.438C324.925 273.882 326.363 272.75 327.933 272.296C329.503 271.843 331.189 271.986 332.784 272.347C333.321 272.468 333.879 272.629 334.271 273.015C334.583 273.322 334.757 273.742 334.871 274.165C335.414 276.183 334.612 278.495 332.936 279.745C331.26 280.994 328.815 281.102 327.036 280.004C326.718 279.809 326.41 279.564 326.261 279.222ZM318.992 314.891C319.977 316.071 321.144 317.144 322.559 317.745C325.418 318.959 329.074 317.838 330.761 315.229C331.375 314.279 331.65 312.829 330.742 312.155C329.286 315.213 325.066 316.563 322.106 314.918C321.539 314.603 321.023 314.2 320.555 313.751C318.426 311.713 317.316 308.384 318.564 305.715C318.971 304.845 319.597 304.093 320.28 303.418C321.772 301.946 323.905 300.741 325.896 301.396C325.979 301.423 326.061 301.453 326.143 301.483C326.422 301.586 326.702 301.689 326.995 301.672C327.375 301.65 327.772 301.31 327.674 300.942C327.645 300.833 327.578 300.739 327.508 300.65C326.278 299.083 323.863 298.599 322.123 299.571C320.053 300.728 317.949 302.089 316.848 304.19C315.056 307.609 316.519 311.928 318.992 314.891ZM351.969 262.156C351.878 262.286 351.901 262.468 351.923 262.642C351.948 262.848 351.973 263.043 351.803 263.127C351.184 263.433 350.442 263.401 349.781 263.199C347.978 262.645 346.769 260.99 345.749 259.404C345.152 258.476 344.558 257.491 344.462 256.392C344.366 255.293 344.928 254.056 345.986 253.745C347.166 253.399 348.323 254.276 349.242 255.094C350.278 256.016 351.337 256.968 351.978 258.198C352.619 259.428 352.762 261.017 351.969 262.156ZM348.048 258.039C348.302 258.286 348.442 258.618 348.581 258.95C348.718 259.278 348.855 259.605 349.103 259.852C349.416 260.164 349.892 260.304 350.325 260.211C349.514 258.956 348.575 257.785 347.526 256.721C347.246 256.806 347.222 257.221 347.391 257.461C347.493 257.606 347.636 257.713 347.78 257.82L347.78 257.82C347.873 257.889 347.966 257.959 348.048 258.039ZM193.687 371.402C193.587 373.049 193.713 374.957 195.031 375.949C195.471 375.704 195.441 375.076 195.385 374.576C195.045 371.498 196 368.532 196.961 365.546C197.649 363.408 198.341 361.26 198.563 359.055C198.627 358.414 198.456 357.539 197.813 357.514C197.332 357.496 197.021 358.004 196.827 358.444C195.027 362.533 193.958 366.943 193.687 371.402ZM321.526 312.014C323.013 312.672 324.662 313.343 326.217 312.871C326.836 312.683 327.387 312.325 327.929 311.972C327.927 312.881 327.145 313.645 326.273 313.905C325.401 314.165 324.464 314.026 323.575 313.834C322.588 313.62 321.381 313.014 321.526 312.014ZM203.904 387.92C204.284 387.244 204.348 386.442 204.405 385.669L204.853 379.513C205.074 376.492 205.294 373.459 205.097 370.436C205.072 370.055 205.033 369.653 204.811 369.342C204.588 369.032 204.118 368.866 203.814 369.097C203.59 369.266 203.533 369.573 203.494 369.852C203.007 373.347 202.746 376.874 202.715 380.403C202.692 382.962 202.809 385.607 203.904 387.92ZM197.176 382.629C196.781 382.962 196.125 382.669 195.907 382.2C195.69 381.732 195.778 381.186 195.871 380.678C196.845 375.365 197.95 370.075 199.185 364.816C199.216 364.685 199.249 364.548 199.334 364.443C199.66 364.041 200.316 364.446 200.547 364.908C201.113 366.042 200.842 367.396 200.559 368.632L197.516 381.905C197.455 382.169 197.383 382.453 197.176 382.629ZM207.716 382.865C207.546 384.857 207.845 386.857 208.143 388.835C208.249 389.539 208.756 390.475 209.392 390.154L210.632 376.895C210.682 376.356 210.716 375.757 210.382 375.331C210.047 374.906 209.201 374.923 209.094 375.454L208.18 380.001C207.989 380.949 207.798 381.9 207.716 382.865ZM335.754 342.227C332.224 340.41 327.928 339.693 324.261 341.216C321.522 342.353 313.781 347.265 312.751 353.561C312.061 357.776 312.068 362.083 313.543 366.153L313.781 366.791C314.22 367.944 315.62 369.268 316.402 368.315C314.117 364.184 313.69 359.07 315.259 354.617C316.827 350.164 320.366 346.447 324.735 344.66C325.655 344.284 326.615 343.988 327.604 343.894C329.604 343.705 331.6 344.353 333.388 345.269C337.237 347.241 342.006 350.521 343.839 354.439C345.605 358.216 346.906 362.721 345.307 366.572C343.709 370.423 333.208 373.209 333.208 373.209L334.37 375.33C334.37 375.33 340.248 374.17 343.839 371.555C358.91 360.579 339.131 343.966 335.754 342.227Z" fill="#00160A"/>
<path fill-rule="evenodd" clip-rule="evenodd" d="M69.3348 288.028C64.0046 288.6 58.359 287.367 54.1973 283.988C51.2498 281.595 49.1787 278.266 47.7254 274.758C46.1476 270.95 45.2405 266.865 45.0581 262.747C44.9895 261.197 45.0263 259.618 45.4819 258.134C46.2318 255.693 48.0375 253.734 49.8808 251.966C53.8024 248.205 58.4118 244.773 63.7876 243.982C67.4507 243.443 71.177 244.178 74.7626 245.101C77.5788 245.825 80.3913 246.68 82.9243 248.108C88.5215 251.264 92.4002 257.283 92.9613 263.684C93.5224 270.085 92.8321 274.326 84.1939 282.279C79.7051 285.21 74.665 287.456 69.3348 288.028ZM78.7345 267.936C77.87 268.207 77.0083 268.69 76.1159 268.533C74.2926 268.212 73.9663 265.711 74.3712 263.904C75.5301 258.733 79.1348 254.166 83.8953 251.837C82.8176 249.883 79.9549 249.739 77.9302 250.678C75.9055 251.618 74.3227 253.311 72.3647 254.382C71.3903 254.916 70.2355 255.293 69.1755 254.961C67.4313 254.415 66.7655 252.13 67.3365 250.394C67.9075 248.658 69.3327 247.362 70.7011 246.15C65.7425 246.324 60.8359 247.812 56.6163 250.422C53.3129 252.466 50.1796 255.816 50.6179 259.675C53.3491 257.477 56.5559 255.872 59.9528 255.004C60.6734 254.82 61.5777 254.728 62.0286 255.319C62.3701 255.767 62.272 256.411 62.0532 256.93C60.9674 259.506 57.7743 260.369 55.7938 262.341C55.5337 262.6 55.2843 262.899 55.2214 263.26C55.098 263.969 55.7732 264.615 56.4826 264.733C57.192 264.852 57.9041 264.593 58.5769 264.34C59.9744 263.812 61.3718 263.285 62.7692 262.758C63.7808 262.376 64.9819 262.012 65.8815 262.612C66.8122 263.232 66.8999 264.643 66.3739 265.631C65.8479 266.618 64.8824 267.28 63.9533 267.903C61.7137 269.404 59.4741 270.905 57.2345 272.406C55.3594 273.662 53.2587 275.357 53.4369 277.607C53.6047 279.725 55.9348 281.165 58.0553 281.029C60.1757 280.892 62.0417 279.596 63.6067 278.159C65.1716 276.721 66.5842 275.08 68.4015 273.979C69.5874 273.261 71.2795 272.862 72.2429 273.859C72.9871 274.63 72.9154 275.868 72.636 276.903C71.8309 279.883 69.6542 282.463 66.8518 283.759C69.1319 284.285 71.5097 284.384 73.8257 284.05C75.1466 283.859 76.514 283.493 77.4691 282.561C78.4243 281.629 78.7942 279.988 77.9656 278.942C76.7297 277.382 76.7788 275.098 77.5684 273.271C78.3581 271.444 79.7684 269.968 81.1501 268.535C80.7546 267.72 79.599 267.664 78.7345 267.936ZM89.2906 271.478C90.5323 268.608 90.5775 265.362 90.263 262.251C89.9153 258.81 88.7157 254.875 85.4742 253.67C80.7241 255.641 77.0583 260.04 75.9752 265.068C75.8842 265.49 75.813 265.944 75.9792 266.343C76.1454 266.742 76.6393 267.033 77.0221 266.833C78.3354 266.144 79.9506 265.754 81.2857 266.399C82.6208 267.044 83.271 269.056 82.1899 270.071C80.9954 271.192 79.7687 272.358 79.1242 273.864C78.4798 275.37 78.5727 277.319 79.786 278.42C80.6977 279.247 80.7 280.871 79.7907 281.701C82.3761 280.946 84.2183 278.723 85.8949 276.615C87.1765 275.003 88.473 273.367 89.2906 271.478ZM59.5274 256.636C56.8379 257.751 54.2273 259.057 51.7215 260.539C51.1257 260.892 50.5234 261.265 50.0877 261.803C49.4993 262.53 49.2757 263.478 49.0939 264.395C48.5065 267.358 48.2037 270.549 49.448 273.301C49.8452 274.18 50.3881 274.983 50.9282 275.782C51.0877 276.018 51.2687 276.27 51.542 276.349C51.8153 276.428 52.1762 276.208 52.112 275.931C51.9142 275.076 52.5613 274.272 53.1998 273.671C56.94 270.151 61.9786 268.13 65.342 264.248C64.8318 263.643 63.864 263.928 63.1365 264.238C61.4038 264.978 59.6172 265.591 57.7955 266.072C56.8558 266.32 55.8086 266.521 54.951 266.064C53.6958 265.395 53.4915 263.564 54.1545 262.306C54.8175 261.048 56.0778 260.235 57.2933 259.497C58.5088 258.758 59.784 257.987 60.5133 256.765C60.3806 256.418 59.871 256.493 59.5274 256.636ZM68.7318 280.219C69.9203 279.264 71.2045 278.138 71.3341 276.619C71.4019 275.825 70.8924 274.853 70.0988 274.929C69.8549 274.952 69.6321 275.073 69.4218 275.199C65.9655 277.263 63.6909 281.301 59.7921 282.304C60.8938 282.798 62.0426 283.186 63.2177 283.462C63.5676 283.544 63.932 283.616 64.284 283.543C64.6935 283.459 65.0362 283.188 65.3622 282.927C66.4854 282.024 67.6086 281.122 68.7318 280.219ZM71.946 247.213C71.1769 248.063 70.4078 248.914 69.6387 249.765C69.0295 250.438 68.376 251.327 68.7151 252.17C68.9649 252.791 69.7026 253.105 70.3698 253.053C71.037 253.001 71.6447 252.66 72.2042 252.293C74.198 250.984 75.9932 249.202 78.32 248.68C76.7067 248.092 75.0934 247.504 73.4801 246.916C73.1442 246.794 72.7696 246.671 72.439 246.808C72.2407 246.889 72.0899 247.054 71.946 247.213Z" fill="#00160A"/>
<path fill-rule="evenodd" clip-rule="evenodd" d="M421.623 61.3191C424.472 62.3067 427.156 59.7369 429.612 57.9861C433.412 55.2771 438.368 54.2528 442.931 55.2338C443.687 55.3965 444.48 55.6408 444.979 56.2331C445.434 56.7747 445.564 57.5135 445.637 58.2175C446.086 62.5272 445.009 66.9806 442.639 70.608C441.486 72.3728 440.042 73.944 439.011 75.7826C437.979 77.6213 437.391 79.8675 438.125 81.8434C442.492 93.5905 440.675 107.446 433.426 117.669C426.177 127.893 413.703 134.192 401.172 133.958C394.764 133.838 388.486 132.128 382.448 129.977C379.814 129.038 376.918 128.009 374.303 129C369.531 130.808 364.508 131.95 359.424 132.382C358.162 132.489 356.844 132.544 355.68 132.046C353.937 131.3 352.885 129.411 352.685 127.526C352.485 125.641 353.006 123.754 353.664 121.977C355.649 116.615 361.813 108.239 365.544 106.31C365.243 99.7986 365.276 93.2112 366.683 86.847C368.091 80.4828 370.964 74.3073 375.676 69.8042C377.623 67.9443 379.85 66.3962 382.184 65.0528C393.985 58.2584 408.756 56.8599 421.623 61.3191ZM403.651 60.7905C394.627 61.0017 385.843 64.6266 378.789 70.2584C376.718 71.9119 374.771 73.7489 373.216 75.8953C371.991 77.5873 371.022 79.4544 370.212 81.3803C365.407 92.808 366.504 106.538 373.062 117.058C373.205 117.288 373.369 117.531 373.624 117.62C373.939 117.73 374.278 117.57 374.572 117.413C395.17 106.436 413.504 91.2335 428.104 73.024C428.452 72.5903 428.818 72.0866 428.743 71.5358C428.686 71.1227 428.391 70.7872 428.104 70.4854C421.874 63.9534 412.676 60.5792 403.651 60.7905ZM416.268 129.01C426.051 124.417 433.482 115.341 436.659 105.011C437.379 102.672 437.896 100.254 437.947 97.8069C437.99 95.7492 437.703 93.7006 437.416 91.6625C437.001 88.7077 436.586 85.753 436.171 82.7982C436.061 82.0148 435.306 80.9807 434.754 81.5481C419.447 97.3011 402.732 111.686 384.874 124.475C384.28 124.9 383.626 125.427 383.593 126.157C383.556 127.002 384.363 127.615 385.096 128.038C394.458 133.437 406.484 133.603 416.268 129.01ZM355.921 127.808C356.633 128.949 358.176 129.183 359.521 129.22C366.576 129.415 373.556 127.348 379.868 124.191C386.18 121.033 391.893 116.81 397.445 112.453C404.849 106.641 412.033 100.55 419.034 94.2575C427.705 86.4644 436.225 78.1985 441.917 68.0248C443.018 66.0568 444.035 63.8989 443.863 61.6504C443.69 59.402 441.897 57.1319 439.643 57.2198C434.862 57.4063 430.16 59.2449 426.52 62.3516C425.796 62.9694 426.308 64.2846 427.199 64.6191C428.09 64.9535 429.083 64.6212 429.954 64.2369C430.824 63.8526 431.731 63.4032 432.677 63.5083C434.122 63.669 435.148 65.1483 435.234 66.5996C435.32 68.051 434.678 69.4459 433.922 70.6876C432.523 72.9857 430.695 74.9888 428.848 76.9455C412.431 94.3385 393.492 109.348 372.809 121.359C370.947 122.44 369.062 123.502 367.058 124.29C366.006 124.703 364.801 125.035 363.774 124.562C362.092 123.787 361.957 121.425 362.462 119.642C363.22 116.966 364.857 114.547 367.061 112.849C366.643 111.673 366.226 110.497 365.809 109.322C360.37 112.796 356.554 118.704 355.623 125.09C355.489 126.011 355.429 127.017 355.921 127.808ZM371.385 119.74C371.423 119.618 371.352 119.492 371.285 119.384C370.582 118.268 369.88 117.152 369.177 116.036C368.859 115.531 368.244 114.958 367.768 115.317C366.05 116.611 364.821 118.537 364.371 120.64C364.282 121.054 364.231 121.517 364.457 121.877C364.877 122.545 365.881 122.396 366.624 122.13C368.208 121.562 369.734 120.832 371.17 119.955C371.258 119.901 371.353 119.839 371.385 119.74ZM432.501 66.603C432.43 66.3131 432.085 66.1871 431.787 66.1741C430.881 66.1346 429.936 66.8788 429.993 67.783C430.05 68.6873 431.394 69.2567 431.956 68.5457C432.125 68.331 432.197 68.0573 432.265 67.7923C432.332 67.5297 432.399 67.2671 432.465 67.0045C432.499 66.8729 432.533 66.7349 432.501 66.603Z" fill="#00160A"/>
</g>
<defs>
<clipPath id="clip0">
<rect width="469.56" height="413.279" fill="white" transform="translate(0.107422 0.138763)"/>
</clipPath>
</defs>
</svg>
