<svg width="120" height="120" viewBox="0 0 120 120" fill="none" xmlns="http://www.w3.org/2000/svg">
<path d="M110.989 90.8532V76.1261C110.989 70.2437 108.652 64.6023 104.493 60.4429C100.333 56.2834 94.6918 53.9467 88.8094 53.9467H76.1355C73.6145 53.9467 71.1967 52.9452 69.4141 51.1626C67.6315 49.38 66.63 46.9622 66.63 44.4412V29.7141C69.274 28.5065 71.5156 26.5651 73.0883 24.1206C74.661 21.6762 75.4987 18.8315 75.5018 15.9248C75.5018 11.8912 73.8994 8.0228 71.0472 5.1706C68.195 2.31841 64.3266 0.716064 60.293 0.716064C56.2594 0.716064 52.391 2.31841 49.5388 5.1706C46.6866 8.0228 45.0843 11.8912 45.0843 15.9248C45.0843 22.0527 48.7344 27.306 53.9561 29.7141V44.4412C53.9561 46.9622 52.9546 49.38 51.172 51.1626C49.3893 52.9452 46.9716 53.9467 44.4506 53.9467H31.7766C25.8943 53.9467 20.2529 56.2834 16.0934 60.4429C11.934 64.6023 9.59721 70.2437 9.59721 76.1261V90.8532C6.43993 92.2931 3.87111 94.771 2.31848 97.8744C0.765855 100.978 0.323102 104.519 1.06395 107.909C1.80479 111.3 3.68452 114.334 6.39017 116.506C9.09581 118.679 12.4641 119.86 15.9342 119.851C19.4007 119.853 22.7636 118.669 25.4644 116.496C28.1651 114.323 30.0414 111.291 30.7814 107.904C31.5215 104.518 31.081 100.98 29.5329 97.8782C27.9848 94.7765 25.4224 92.2977 22.2712 90.8532V76.1261C22.2712 73.6051 23.2726 71.1873 25.0553 69.4047C26.8379 67.6221 29.2556 66.6206 31.7766 66.6206H44.4506C47.8662 66.6206 51.0664 65.7841 53.9561 64.4027V90.8532C50.7988 92.2931 48.23 94.771 46.6773 97.8744C45.1247 100.978 44.6819 104.519 45.4228 107.909C46.1636 111.3 48.0434 114.334 50.749 116.506C53.4547 118.679 56.8229 119.86 60.293 119.851C63.7596 119.853 67.1224 118.669 69.8232 116.496C72.524 114.323 74.4002 111.291 75.1403 107.904C75.8804 104.518 75.4398 100.98 73.8917 97.8782C72.3437 94.7765 69.7813 92.2977 66.63 90.8532V64.4027C69.5197 65.7841 72.7198 66.6206 76.1355 66.6206H88.8094C91.3304 66.6206 93.7482 67.6221 95.5308 69.4047C97.3134 71.1873 98.3149 73.6051 98.3149 76.1261V90.8532C95.6709 92.0608 93.4293 94.0022 91.8566 96.4467C90.2839 98.8911 89.4462 101.736 89.4431 104.642C89.4431 108.676 91.0455 112.545 93.8977 115.397C96.7499 118.249 100.618 119.851 104.652 119.851C108.685 119.851 112.554 118.249 115.406 115.397C118.258 112.545 119.861 108.676 119.861 104.642C119.861 98.5146 116.217 93.2613 110.989 90.8532ZM60.293 7.1481C62.6191 7.1481 64.8499 8.07212 66.4946 9.71688C68.1394 11.3616 69.0634 13.5924 69.0634 15.9185C69.0634 18.2445 68.1394 20.4753 66.4946 22.1201C64.8499 23.7648 62.6191 24.6889 60.293 24.6889C57.967 24.6889 55.7362 23.7648 54.0914 22.1201C52.4467 20.4753 51.5227 18.2445 51.5227 15.9185C51.5227 13.5924 52.4467 11.3616 54.0914 9.71688C55.7362 8.07212 57.967 7.1481 60.293 7.1481ZM15.9342 113.419C14.7816 113.419 13.6403 113.192 12.5755 112.751C11.5106 112.31 10.5431 111.664 9.72812 110.849C8.91312 110.034 8.26664 109.066 7.82556 108.001C7.38449 106.936 7.15748 105.795 7.15748 104.642C7.15748 103.49 7.38449 102.349 7.82556 101.284C8.26664 100.219 8.91312 99.2514 9.72812 98.4364C10.5431 97.6214 11.5106 96.9749 12.5755 96.5339C13.6403 96.0928 14.7816 95.8658 15.9342 95.8658C18.2619 95.8658 20.4943 96.7905 22.1403 98.4364C23.7862 100.082 24.7109 102.315 24.7109 104.642C24.7109 106.97 23.7862 109.203 22.1403 110.849C20.4943 112.495 18.2619 113.419 15.9342 113.419ZM60.293 113.419C59.1405 113.419 57.9992 113.192 56.9343 112.751C55.8695 112.31 54.902 111.664 54.087 110.849C53.272 110.034 52.6255 109.066 52.1844 108.001C51.7433 106.936 51.5163 105.795 51.5163 104.642C51.5163 103.49 51.7433 102.349 52.1844 101.284C52.6255 100.219 53.272 99.2514 54.087 98.4364C54.902 97.6214 55.8695 96.9749 56.9343 96.5339C57.9992 96.0928 59.1405 95.8658 60.293 95.8658C62.6208 95.8658 64.8531 96.7905 66.4991 98.4364C68.1451 100.082 69.0697 102.315 69.0697 104.642C69.0697 106.97 68.1451 109.203 66.4991 110.849C64.8531 112.495 62.6208 113.419 60.293 113.419ZM104.652 113.419C103.499 113.419 102.358 113.192 101.293 112.751C100.228 112.31 99.2608 111.664 98.4458 110.849C97.6308 110.034 96.9843 109.066 96.5432 108.001C96.1022 106.936 95.8752 105.795 95.8752 104.642C95.8752 103.49 96.1022 102.349 96.5432 101.284C96.9843 100.219 97.6308 99.2514 98.4458 98.4364C99.2608 97.6214 100.228 96.9749 101.293 96.5339C102.358 96.0928 103.499 95.8658 104.652 95.8658C106.98 95.8658 109.212 96.7905 110.858 98.4364C112.504 100.082 113.429 102.315 113.429 104.642C113.429 106.97 112.504 109.203 110.858 110.849C109.212 112.495 106.98 113.419 104.652 113.419Z" fill="#7000FF"/>
</svg>
