<svg width="115" height="114" viewBox="0 0 115 114" fill="none" xmlns="http://www.w3.org/2000/svg">
<path d="M112.051 59.7889L87.5021 48.4888V16.1114C87.4908 15.4322 87.2845 14.7705 86.9077 14.2052C86.5308 13.6399 85.9994 13.1949 85.3767 12.9233L58.8089 0.702096C58.3425 0.486291 57.8349 0.374512 57.3211 0.374512C56.8072 0.374512 56.2996 0.486291 55.8333 0.702096L29.2654 12.9233C28.6505 13.2079 28.1302 13.6628 27.766 14.2342C27.4018 14.8055 27.2092 15.4693 27.2109 16.1469V48.5242L2.76846 59.7889C2.15357 60.0735 1.63319 60.5284 1.26903 61.0998C0.904868 61.6712 0.712201 62.335 0.713878 63.0125V97.6569C0.712201 98.3345 0.904868 98.9983 1.26903 99.5696C1.63319 100.141 2.15357 100.596 2.76846 100.881L29.3363 113.102C29.8026 113.318 30.3103 113.429 30.8241 113.429C31.3379 113.429 31.8456 113.318 32.3119 113.102L57.3919 101.554L82.4719 113.102C82.9382 113.318 83.4459 113.429 83.9597 113.429C84.4735 113.429 84.9812 113.318 85.4475 113.102L112.015 100.881C112.63 100.596 113.151 100.141 113.515 99.5696C113.879 98.9983 114.072 98.3345 114.07 97.6569V63.0125C114.075 62.3388 113.887 61.6777 113.53 61.1067C113.172 60.5358 112.659 60.0786 112.051 59.7889ZM102.097 63.0125L83.9952 71.2662L65.8936 63.0125L83.9952 54.6879L102.097 63.0125ZM57.3919 7.78685L75.4934 16.1114L57.3919 24.436L39.3258 16.1114L57.3919 7.78685ZM30.8241 54.6525L48.9256 62.9771L30.8241 71.2662L12.7225 63.0125L30.8241 54.6525ZM53.8495 95.3544L30.8241 105.982L7.79863 95.3544V68.5386L29.3363 78.351C29.793 78.5563 30.288 78.6624 30.7887 78.6624C31.2894 78.6624 31.7844 78.5563 32.241 78.351L53.7787 68.4323L53.8495 95.3544ZM34.3665 48.4888V21.673L55.9041 31.5916C56.3704 31.8074 56.8781 31.9192 57.3919 31.9192C57.9057 31.9192 58.4134 31.8074 58.8797 31.5916L80.4174 21.673V48.5242L57.3919 59.1513L34.3665 48.4888ZM107.021 95.3898L83.9952 106.017L60.9343 95.3898V68.5032L82.5074 78.351C82.9592 78.5511 83.4479 78.6545 83.942 78.6545C84.4362 78.6545 84.9249 78.5511 85.3767 78.351L106.914 68.4323L107.021 95.3898Z" fill="#7000FF"/>
</svg>
