<svg width="129" height="130" viewBox="0 0 129 130" fill="none" xmlns="http://www.w3.org/2000/svg">
<path d="M128.627 24.8876L99.079 0.0927734L90.7927 9.92077L120.341 34.7156L128.627 24.8876ZM37.9271 9.92077L29.705 0.0927734L0.156738 24.8233L8.44309 34.6513L37.9271 9.92077ZM67.6038 39.5332H57.9685V78.0744L88.4802 96.3814L93.2979 88.4805L67.6038 73.2567V39.5332ZM64.392 13.8391C32.4671 13.8391 6.58026 39.7259 6.58026 71.6508C6.58026 103.576 32.4028 129.463 64.392 129.463C79.7246 129.463 94.4293 123.372 105.271 112.53C116.113 101.688 122.204 86.9835 122.204 71.6508C122.204 56.3182 116.113 41.6136 105.271 30.7718C94.4293 19.93 79.7246 13.8391 64.392 13.8391ZM64.392 116.616C39.533 116.616 19.4273 96.5099 19.4273 71.6508C19.4273 46.7918 39.533 26.6862 64.392 26.6862C89.251 26.6862 109.357 46.7918 109.357 71.6508C109.357 96.5099 89.251 116.616 64.392 116.616Z" fill="#7000FF"/>
</svg>
