<svg width="524" height="491" viewBox="0 0 524 491" fill="none" xmlns="http://www.w3.org/2000/svg">
<g clip-path="url(#clip0)">
<path fill-rule="evenodd" clip-rule="evenodd" d="M37.5768 234.537C37.5768 234.537 15.3475 215.548 46.5337 149.983C77.7198 84.4186 140.878 98.7893 181.248 73.0003C240.896 34.8959 216.448 5.07634 290.825 0.269718C384.471 -5.78219 389.775 92.0171 436.627 92.0171C439.709 92.0171 512.667 62.7016 523.346 142.954C528.724 183.37 436.627 245.002 436.627 245.002C436.627 245.002 398.297 279.745 396.192 296.902C387.365 368.852 405.774 451.26 199.471 489.197C172.79 494.104 128.486 476.356 104.044 443.572C84.8954 417.887 8.08212 436.11 0.911819 351.669C-2.70216 309.108 37.5768 234.537 37.5768 234.537Z" fill="#7000FF"/>
<path d="M175.186 177.491C175.882 177.081 176.779 177.312 177.189 178.007L178.845 180.801C185.42 191.832 188.05 195.415 190.846 197.034C193.143 198.365 195.518 197.952 199.867 195.402L200.447 195.053C203.182 193.349 215.696 184.753 220.534 181.666C221.215 181.232 222.12 181.432 222.554 182.113C222.989 182.794 222.789 183.698 222.108 184.132L221.363 184.612C215.971 188.107 203.859 196.425 201.715 197.707C196.451 200.855 193.038 201.562 189.618 199.7L189.379 199.565C185.705 197.436 182.846 193.352 174.67 179.494C174.259 178.798 174.491 177.901 175.186 177.491Z" fill="white"/>
<path d="M198.874 194.398C199.675 194.291 200.411 194.853 200.518 195.654C201.016 199.375 202.209 203.106 204.104 206.851C204.468 207.572 204.18 208.452 203.459 208.816C202.738 209.181 201.858 208.892 201.493 208.171C199.455 204.141 198.161 200.097 197.619 196.042C197.511 195.241 198.074 194.505 198.874 194.398Z" fill="white"/>
<path fill-rule="evenodd" clip-rule="evenodd" d="M369.278 283.737C369.042 284.334 368.525 285.161 367.924 285.943L368.442 286.48L369.042 287.119L369.175 287.247C369.234 287.299 369.279 287.33 369.312 287.339C369.507 287.367 369.642 287.546 369.615 287.741C369.587 287.932 369.409 288.07 369.215 288.042C369.039 288.038 368.401 287.789 367.641 287.171C367.503 287.059 367.365 286.93 367.226 286.789C366.787 287.278 366.344 287.699 365.961 287.96C365.397 288.349 364.909 288.38 364.676 288.222C364.447 288.069 364.227 287.554 364.6 286.513C364.658 286.324 364.859 286.225 365.045 286.284C365.231 286.343 365.334 286.541 365.275 286.729C365.218 286.922 365.211 287.099 365.21 287.24L365.426 287.093C365.503 287.038 365.581 286.977 365.653 286.904C365.914 286.647 366.206 286.334 366.499 285.996C366.035 285.456 365.562 284.823 365.179 284.092C364.992 283.735 364.843 283.357 364.702 282.959C364.604 282.737 364.705 282.476 364.928 282.377C365.151 282.279 365.412 282.381 365.51 282.603C365.936 283.496 366.48 284.266 367.018 284.925L367.197 285.14C367.686 284.499 368.107 283.851 368.298 283.357C368.404 283.088 368.709 282.954 368.978 283.057C369.25 283.164 369.384 283.468 369.278 283.737Z" fill="white"/>
<path fill-rule="evenodd" clip-rule="evenodd" d="M151.637 99.2102L150.746 99.0488C145.767 98.1232 141.95 96.9869 134.819 94.5146C134.001 94.2311 133.568 93.3383 133.852 92.5206C134.135 91.7028 135.028 91.2697 135.846 91.5532L137.623 92.1649C143.878 94.2996 147.388 95.2783 152.181 96.1235C168.311 98.9675 180.387 90.6867 181.376 74.8937C181.43 74.0299 182.174 73.3734 183.038 73.4275C183.901 73.4815 184.558 74.2256 184.504 75.0894C183.393 92.851 169.52 102.363 151.637 99.2102Z" fill="#00160A"/>
<path fill-rule="evenodd" clip-rule="evenodd" d="M191.94 116.123L192.839 118.123L194.891 118.712C195.002 118.744 195.066 118.86 195.034 118.97C195.024 119.005 195.006 119.036 194.981 119.061L193.422 120.613L193.509 122.846C193.514 122.961 193.424 123.058 193.309 123.063C193.27 123.064 193.231 123.055 193.197 123.035L191.433 122.03C191.377 121.999 191.311 121.994 191.252 122.018L189.365 122.767C189.258 122.81 189.136 122.758 189.093 122.65C189.079 122.614 189.075 122.574 189.082 122.536L189.479 120.337L188.152 118.583C188.082 118.491 188.1 118.36 188.192 118.291C188.221 118.269 188.254 118.255 188.289 118.25L190.403 117.953L191.572 116.098C191.634 116 191.763 115.971 191.86 116.032C191.895 116.054 191.923 116.086 191.94 116.123Z" fill="#00160A"/>
<path d="M398.089 65.8582C398.895 65.8007 399.594 66.4073 399.652 67.2131C399.709 68.0189 399.103 68.7187 398.297 68.7762C392.525 69.1879 387.992 71.4246 385.978 76.9575C385.857 77.2906 385.757 77.612 385.675 77.9175L385.62 78.1274L385.709 77.9432C388.244 72.7661 393.135 69.1689 398.802 68.2559L399.172 68.2002C399.972 68.0885 400.712 68.6466 400.823 69.4467C400.935 70.2467 400.377 70.9858 399.577 71.0975C394.312 71.8324 389.809 75.3312 387.844 80.3497L387.717 80.6865C386.783 83.2515 384.542 84.4814 383.1 82.2863C382.22 80.9475 382.278 78.5696 383.229 75.957C385.641 69.3299 391.176 66.3514 398.089 65.8582Z" fill="white"/>
<path d="M391.426 54.9613C392.232 54.9038 392.932 55.5104 392.989 56.3162C393.047 57.1219 392.44 57.8217 391.634 57.8792C382.453 58.5343 374.402 64.4969 371.199 73.2982C370.249 75.9072 370.072 78.1378 370.412 79.2675L370.454 79.3936L370.519 79.3003C370.682 79.0526 370.866 78.6968 371.046 78.2354L371.123 78.0312C374.507 68.7347 382.711 62.2241 392.333 60.8809C393.133 60.7693 393.872 61.3273 393.984 62.1274C394.096 62.9274 393.538 63.6665 392.738 63.7782C384.32 64.9532 377.125 70.571 374.026 78.6204L373.872 79.0317C372.617 82.4792 369.904 83.9685 368.169 81.3287C366.981 79.5198 367.064 76.1049 368.45 72.2977C372.051 62.4022 381.104 55.6977 391.426 54.9613Z" fill="white"/>
<path d="M382.448 40.4318C383.253 40.3743 383.953 40.9809 384.011 41.7867C384.068 42.5924 383.462 43.2922 382.656 43.3497C369.561 44.284 358.077 52.7885 353.509 65.3417C351.954 69.6138 351.824 73.2347 352.673 74.7398L352.751 74.867C352.876 75.0584 352.834 75.064 352.866 75.0376L352.886 75.0248C353.316 74.7887 353.884 73.9841 354.403 72.6497L354.506 72.3757C359.173 59.5543 370.487 50.5755 383.758 48.7231C384.558 48.6114 385.297 49.1694 385.409 49.9695C385.52 50.7696 384.962 51.5087 384.162 51.6204C372.112 53.3024 361.818 61.369 357.425 72.9186L357.255 73.3763C355.632 77.8367 352.376 79.6237 350.306 76.4735C348.762 74.1249 348.875 69.5197 350.76 64.3411C355.727 50.6939 368.212 41.4474 382.448 40.4318Z" fill="white"/>
<path d="M366.42 26.7768C367.213 26.6215 367.981 27.1383 368.136 27.9311C368.292 28.7238 367.775 29.4923 366.982 29.6476C355.127 31.9693 345.593 41.0242 342.828 53.0013C341.892 57.0548 342.175 60.3507 343.094 61.6081L343.216 61.7658L343.225 61.7877L343.242 61.7745C343.571 61.4777 343.955 60.7196 344.254 59.5443L344.316 59.2861C347.16 46.968 356.551 37.433 368.547 34.2309C369.327 34.0225 370.129 34.4863 370.337 35.2668C370.545 36.0473 370.082 36.8489 369.301 37.0573C358.494 39.9422 350.003 48.4506 347.278 59.4768L347.166 59.9442C346.164 64.2886 343.284 66.3625 340.951 63.6124C339.244 61.601 338.826 57.333 339.978 52.3432C343.005 39.2316 353.442 29.3183 366.42 26.7768Z" fill="white"/>
<path d="M204.277 207.173L205.121 206.866C213.102 204.002 219.835 202.739 221.546 204.479C223.046 206.005 224.383 208.769 225.65 212.823C225.891 213.594 225.461 214.414 224.69 214.655C223.919 214.896 223.099 214.466 222.858 213.695C221.762 210.19 220.643 207.83 219.586 206.664L219.542 206.618L219.505 206.62C219.304 206.579 219.004 206.558 218.622 206.566C217.779 206.582 216.627 206.731 215.251 207.003C212.42 207.564 208.842 208.607 205.289 209.918C199.349 212.109 194.4 214.684 191.666 217.01C190.662 217.864 188.83 215.485 190.593 214.123C193.766 211.671 198.579 209.275 204.277 207.173Z" fill="white"/>
<path d="M200.261 179.541C200.261 184.42 205.421 189.702 206.519 190.003C207.298 190.216 193.874 198.963 193.874 198.963C189.023 199.601 186.175 195.501 186.175 189.394C186.175 188.586 200.261 178.733 200.261 179.541Z" fill="white"/>
<path fill-rule="evenodd" clip-rule="evenodd" d="M184.432 182.105C186.131 181.775 187.286 180.359 187.01 178.943C186.735 177.527 185.135 176.647 183.435 176.977C181.736 177.307 180.582 178.723 180.857 180.139C181.132 181.555 182.733 182.435 184.432 182.105Z" fill="#BD00FF"/>
<path d="M357.572 18.6657C358.368 18.5271 359.126 19.0598 359.264 19.8557C359.403 20.6515 358.87 21.409 358.074 21.5477C354.289 22.207 350.472 24.498 346.537 28.1421C341.427 32.8739 338.052 39.4123 336.191 48.13C334.691 55.1536 336.075 63.9298 339.994 71.645C344.453 80.4226 352.341 82.592 361.538 84.2718C370.98 85.9964 373.589 84.9314 382.511 81.7596L383.332 81.4614C384.551 80.9995 390.252 78.7689 391.623 78.3544C394.507 77.4821 396.475 77.5551 397.902 79.0754C398.454 79.6645 398.425 80.5902 397.836 81.1429C397.284 81.6612 396.436 81.6677 395.876 81.1812L395.768 81.0773C395.347 80.6288 394.477 80.5768 392.726 81.079L392.47 81.1545C391.151 81.5532 384.969 83.9797 384.168 84.2718C374.532 87.7894 371.264 89.022 361.013 87.1496C350.854 85.2942 342.235 82.5165 337.386 72.9699C333.171 64.6732 331.686 55.2171 333.33 47.5193C335.316 38.2151 338.994 31.1394 344.549 25.9956C348.898 21.9691 353.23 19.422 357.572 18.6657Z" fill="white"/>
<path d="M426.382 135.052C418.043 134.626 411.477 141.066 411.408 149.711C411.35 156.995 415.452 162.993 421.088 164.155C423.368 164.624 427.743 164.059 430.988 162.239C435.917 159.596 439.684 154.163 440.159 149.533C440.933 141.99 434.827 135.484 426.382 135.052Z" fill="white"/>
<path d="M275.282 133.529C277.946 138.909 282.082 151.334 280.293 151.274C275.324 151.108 268.676 143.471 264.026 133.146L263.659 132.315C259.599 122.94 257.167 117.051 259.991 115.922C262.911 114.755 269.785 122.427 275.282 133.529Z" fill="white"/>
<path fill-rule="evenodd" clip-rule="evenodd" d="M259.991 115.805C262.912 114.638 269.887 121.959 275.384 133.061C278.047 138.441 279.854 143.601 280.326 147.302C280.326 147.302 271.331 128.349 265.844 121.407C263.737 118.74 259.991 115.805 259.991 115.805Z" fill="#E7EAEE"/>
<path d="M258.459 163.537C258.673 162.758 259.478 162.3 260.257 162.515C261.036 162.729 261.493 163.534 261.279 164.313C261.004 165.315 257.129 167.943 248.676 173.154L243.34 176.419C232.806 182.832 225.777 186.935 224.898 186.935C219.082 186.935 213.841 181.449 210.015 172.792C206.674 165.233 204.939 156.235 205.722 150.338C205.967 148.498 212.098 143.734 221.566 137.351L222.922 136.442C231.297 130.863 238.457 126.724 241.047 126.202C241.839 126.042 242.61 126.554 242.77 127.346C242.87 127.842 219.783 147.302 217.528 160.218C216.001 168.963 221.774 183.869 224.639 184.004L224.898 184.01C224.665 184.01 224.74 183.956 224.767 183.94L225.031 183.804C225.225 183.703 225.456 183.578 225.721 183.432L226.938 182.751C227.404 182.488 227.923 182.19 228.49 181.863L229.942 181.019C232.714 179.401 236.172 177.341 239.699 175.207L243.054 173.167C247.133 170.675 250.819 168.377 253.589 166.592L255.016 165.665C255.899 165.085 256.646 164.584 257.243 164.168L257.46 164.016C257.789 163.784 258.063 163.584 258.276 163.42C258.276 163.42 258.517 163.325 258.459 163.537Z" fill="white"/>
<path fill-rule="evenodd" clip-rule="evenodd" d="M261.359 134.347C257.824 126.499 256.262 119.307 257.446 114.952C255.307 115.632 252.634 116.853 249.98 118.376C246.452 120.4 243.652 122.662 243.587 123.153C242.905 128.286 245.522 138.273 249.871 147.176C254.523 156.7 260.058 162.816 264.342 162.816C264.752 162.816 265.926 162.574 267.103 162.163C268.777 161.579 270.345 160.727 271.629 159.611C272.268 159.056 272.929 158.429 273.619 157.729L274.451 156.869C274.942 156.35 275.448 155.791 276.239 154.906L277.339 153.677L277.387 153.625C271.875 151.611 266.111 144.512 261.799 135.306L261.359 134.347ZM240.687 122.768C241.142 119.343 253.963 111.941 259.814 111.463C260.059 111.309 260.32 111.176 260.6 111.065C265.667 109.04 273.387 117.713 279.581 129.916L280.005 130.763C282.801 136.409 284.708 141.857 285.227 145.932C285.848 150.801 284.438 154.03 280.742 154.195C280.642 154.579 280.392 154.9 280.06 155.093L280.003 155.122L279.859 155.266C279.714 155.415 279.543 155.6 279.279 155.893L277.462 157.922C276.802 158.648 276.335 159.141 275.702 159.783C274.962 160.534 274.247 161.211 273.548 161.819C270.716 164.279 266.529 165.742 264.342 165.742C263.182 165.742 262.009 165.472 260.834 164.957C259.579 166.267 255.715 168.815 248.676 173.154L243.34 176.42C232.806 182.832 225.777 186.936 224.898 186.936C222.906 186.936 220.982 186.292 219.159 185.098C219.142 185.11 219.125 185.121 219.107 185.132L218.362 185.612C215.771 187.292 211.627 190.086 207.783 192.677L207.782 192.678L207.543 192.839C208.041 196.391 209.172 199.953 210.941 203.527C217.224 201.585 222.2 200.928 223.636 202.389C225.136 203.915 226.472 206.679 227.74 210.733C227.981 211.504 227.551 212.325 226.78 212.566C226.009 212.807 225.188 212.377 224.947 211.606C223.852 208.1 222.733 205.741 221.676 204.574L221.632 204.528L221.595 204.53C221.394 204.49 221.094 204.469 220.712 204.476C219.869 204.493 218.717 204.641 217.341 204.914C214.51 205.475 210.932 206.518 207.379 207.828C199.258 210.824 192.989 214.537 191.701 217.35C191.324 218.174 191.372 219.379 191.823 221.224L191.907 221.556C191.975 221.818 192.045 222.077 192.138 222.405L192.666 224.274L192.688 224.358C192.703 224.415 192.719 224.475 192.737 224.545C192.94 225.327 192.471 226.125 191.689 226.328C190.907 226.531 190.108 226.062 189.905 225.28L189.646 224.334L189.213 222.807C189.164 222.626 189.119 222.46 189.075 222.29C188.39 219.648 188.28 217.796 189.041 216.132C190.333 213.312 194.373 210.39 199.998 207.734L198.775 204.573L198.473 203.774C198.009 202.528 197.47 200.838 197.14 199.605C192.745 201.974 189.684 202.37 186.617 200.699L186.379 200.565C185.772 200.214 185.188 199.809 184.598 199.316L167.455 209.729C167.615 210.072 167.775 210.418 167.938 210.767C168.707 212.417 167.351 213.585 165.27 214.493L165.045 214.589C163.257 215.33 161.643 215.5 160.682 214.445C156.696 210.069 152.476 199.603 154.746 197.209C155.182 196.749 156.333 196.065 158.509 194.924L158.682 194.834C158.727 194.803 158.773 194.774 158.822 194.748L174.847 186.066C174.884 186.046 174.921 186.027 174.959 186.011C173.969 184.375 172.884 182.552 171.684 180.519C171.502 180.224 171.435 179.88 171.481 179.549C171.51 179.338 171.585 179.132 171.706 178.949C171.772 178.847 171.852 178.753 171.943 178.67C175.238 175.545 179.727 172.287 185.359 168.779L186.041 168.356C188.479 166.854 193.422 164.034 197.621 161.639C200.879 159.781 203.689 158.179 204.535 157.643L204.74 157.507C205.046 157.283 205.41 157.196 205.759 157.233C205.481 154.696 205.457 152.339 205.723 150.338C205.967 148.498 212.099 143.734 221.566 137.351L222.922 136.442C230.857 131.156 237.701 127.164 240.601 126.314C240.523 125.004 240.549 123.811 240.687 122.768ZM240.921 129.28C238.08 130.319 230.965 134.543 223.201 139.777L221.958 140.62C218.464 143.004 215.237 145.328 212.798 147.223L212.121 147.754C211.033 148.616 210.153 149.359 209.514 149.955C209.194 150.254 208.942 150.509 208.764 150.713L208.639 150.86C208.612 150.888 208.605 150.877 208.615 150.785L208.623 150.724C208.62 150.747 208.617 150.768 208.615 150.785L208.576 151.099C207.17 163.443 216.096 183.602 224.639 184.004L224.84 184.009C224.857 184.01 224.876 184.01 224.898 184.01L224.84 184.009C224.679 184 224.743 183.954 224.767 183.94L225.031 183.804C225.225 183.703 225.456 183.578 225.722 183.432L226.939 182.752C227.404 182.488 227.923 182.19 228.491 181.863L229.942 181.02C232.714 179.401 236.172 177.341 239.699 175.207L243.054 173.167C247.133 170.675 250.819 168.377 253.589 166.592L255.016 165.665C255.9 165.085 256.646 164.584 257.243 164.168L257.46 164.016C257.776 163.793 258.041 163.6 258.251 163.44C254.483 160.675 250.773 155.569 247.48 148.941L247.243 148.46C244.069 141.962 241.773 134.926 240.921 129.28ZM206.163 160.069C205.107 160.734 201.994 162.511 198.53 164.489C194.425 166.833 189.828 169.459 187.577 170.846C182.261 174.124 177.973 177.162 174.791 180.023L175.845 181.801C180.458 189.54 183.129 193.613 185.277 195.914C184.564 194.221 184.194 192.072 184.194 189.378C184.194 189.253 184.209 189.133 184.238 189.018C184.096 188.458 184.296 187.842 184.791 187.479L185.787 186.739C186.385 186.287 187.368 185.536 188.486 184.681C190.932 182.812 194.023 180.45 195.126 179.66C198.595 177.175 201.152 175.781 203.48 175.297C204.592 175.066 205.456 175.723 205.706 176.742L205.747 176.928C205.805 177.231 205.816 177.529 205.815 178.18L205.814 178.387C205.802 180.821 206.043 182.225 207.074 183.848C207.779 184.958 208.816 185.971 210.26 186.878C210.411 186.973 210.539 187.091 210.642 187.225C212.971 185.661 215.154 184.205 216.764 183.162C214.227 180.706 211.942 177.151 210.015 172.792C208.22 168.731 206.889 164.256 206.163 160.069ZM282.326 146.302C281.854 142.601 280.047 137.441 277.384 132.061C271.886 120.959 264.606 112.614 261.685 113.781C258.862 114.909 259.599 122.94 263.659 132.315L264.026 133.146C268.676 143.471 275.324 151.108 280.293 151.274C282.082 151.334 282.781 149.873 282.326 146.302ZM176.47 188.484C179.007 192.587 180.861 195.297 182.477 197.182L166.225 207.053C164.56 203.404 163.071 200.007 161.626 196.556L176.241 188.638C176.323 188.593 176.4 188.541 176.47 188.484ZM208.136 204.45C206.559 201.188 205.47 197.918 204.871 194.64C202.771 196.053 200.943 197.277 199.769 198.04C199.97 199.049 200.718 201.444 201.362 203.147L202.562 206.237L202.677 206.539C203.857 206.041 205.09 205.555 206.367 205.084L207.211 204.777C207.522 204.665 207.83 204.556 208.136 204.45ZM208.084 188.946C206.586 187.908 205.437 186.726 204.605 185.417C203.258 183.296 202.904 181.486 202.889 178.751L202.888 178.506L202.681 178.584C201.198 179.159 199.428 180.201 197.204 181.771L196.83 182.038C195.771 182.796 192.757 185.099 190.327 186.956L190.326 186.957C188.975 187.989 187.805 188.884 187.25 189.299L187.119 189.396C187.122 194.262 188.337 196.495 190.596 197.578L190.777 197.661C191.315 197.899 191.699 198.019 192.797 198.32C192.819 198.326 192.841 198.332 192.862 198.339C194.001 197.956 195.307 197.317 196.866 196.402L197.447 196.053C198.735 195.251 202.191 192.92 205.994 190.355C206.682 189.891 207.383 189.419 208.084 188.946ZM159.041 197.955L159.265 198.488C160.818 202.172 162.433 205.82 164.265 209.798L164.977 211.342C164.744 211.499 164.437 211.665 164.099 211.813C163.614 212.024 163.122 212.173 162.752 212.223L162.634 212.235L162.456 212.021C161.071 210.317 159.464 207.42 158.303 204.54C157.684 203.006 157.244 201.599 157.045 200.518C156.964 200.077 156.927 199.707 156.93 199.426L156.938 199.241C156.941 199.197 156.941 199.173 156.93 199.17L156.974 199.14C157.221 198.97 157.853 198.6 158.791 198.09L159.041 197.955ZM179.218 194.732C178.652 194.156 177.726 194.147 177.149 194.712C176.135 195.707 174.713 196.634 172.231 198.012L169.704 199.415C169.037 199.795 168.49 200.123 167.995 200.444C167.581 200.712 167.212 200.971 166.879 201.228C166.24 201.722 166.122 202.64 166.616 203.28C167.11 203.919 168.029 204.037 168.668 203.543C168.932 203.339 169.237 203.125 169.587 202.898C169.91 202.689 170.265 202.471 170.676 202.231L171.482 201.77L174.048 200.348C176.514 198.964 178 197.976 179.198 196.801C179.775 196.235 179.783 195.309 179.218 194.732Z" fill="#00160A"/>
<path d="M146.5 343.27C153.815 384.051 181.229 414.709 216.212 421.937C222.633 423.264 233.753 423.438 245.267 421.948C260.102 420.028 274.54 415.624 287.237 408.486C322.118 389.739 348.585 351.479 352.016 317.987C355.029 288.567 343.79 261.389 323.444 242C323.444 242 259.528 273.393 228.153 291.237C200.851 306.764 146.5 343.27 146.5 343.27Z" fill="white"/>
<path d="M295.351 221.658C282.24 215.19 265.815 210.08 249.708 209.257C190.635 206.236 144.176 253.427 143.691 314.295C143.691 314.295 209.623 272.3 243.875 252.038C260.916 241.958 295.351 221.658 295.351 221.658Z" fill="white"/>
<path fill-rule="evenodd" clip-rule="evenodd" d="M416.855 190.637C416.656 200.807 405.895 217.733 388.596 236.887C376.065 250.762 361.484 264.174 349.258 273.212L348.497 273.769L349.002 276.015C351.975 289.045 355.856 303.21 354.39 317.495C350.831 352.166 323.712 391.281 287.875 410.5C274.805 417.832 259.948 422.354 244.708 424.322L243.255 424.502C231.892 425.84 221.018 425.618 214.373 424.248C188.58 418.93 166.743 400.9 153.541 374.806C153.497 374.718 153.462 374.628 153.437 374.537C151.699 375.528 149.36 376.636 148.292 376.999L145.366 377.987C113.834 388.593 82.5731 397.467 69.8026 391.928C64.9411 389.82 63.2794 385.766 65.3126 380.318C67.2885 375.025 72.7669 368.203 81.9585 359.714L82.4635 359.249C91.1732 351.265 110.515 336.676 140.489 315.482L140.496 315.092C141.959 252.291 190.741 204.415 252.059 208.323C270.814 209.518 285.75 216.183 293.21 220.276L296.491 218.515C327.261 202.063 351.95 190.497 370.787 183.575C401.766 172.191 417.086 177.514 416.855 190.637ZM371.796 190.321C337.156 203.05 282.412 231.679 206.191 277.73L203.874 279.131C144.523 315.06 105.222 342.356 84.4403 361.406L83.416 362.352L82.4449 363.262C66.8449 378.001 64.0798 386.258 70.9665 389.245C82.7555 394.357 114.414 385.738 145.418 375.569L148.292 374.621C151.057 373.705 152.891 373.179 154.026 372.937C154.075 372.901 154.129 372.869 154.186 372.84C154.574 372.644 155.008 372.637 155.383 372.784C155.464 372.8 155.517 372.825 155.545 372.86C155.797 372.997 156.012 373.209 156.151 373.485C168.968 398.817 190.087 414.254 214.964 419.383C221.422 420.714 232.316 420.909 243.653 419.507L244.334 419.421C259.223 417.498 273.724 415.084 286.468 407.935C321.488 389.154 348.022 350.883 351.48 317.196C352.958 302.799 351.072 288.667 346.058 275.514C345.644 275.804 345.233 276.087 344.826 276.365C344.056 276.89 344.344 276.04 345.688 273.814C345.759 273.524 345.92 273.26 346.15 273.061L346.564 272.405C346.709 272.177 346.861 271.939 347.021 271.691L348.755 270.229C365.094 256.409 377.651 244.642 386.425 234.926L387.427 233.812C403.661 215.644 413.753 199.597 413.919 190.583C414.102 180.695 401.056 179.569 371.796 190.321ZM224.918 375.301C228.842 387.296 222.905 395.011 212.454 395.41C202.797 395.778 194.003 389.693 194.451 381.046C194.839 373.573 199.956 365.584 206.256 362.65C213.875 359.102 221.025 363.406 224.918 375.301ZM207.799 365.965C202.758 368.312 198.422 375.082 198.103 381.236C197.786 387.364 204.56 392.052 212.314 391.756C220.421 391.446 224.583 386.039 221.442 376.439C218.172 366.443 213.199 363.45 207.799 365.965ZM304.711 350.859C309.719 360.321 308.408 369.617 300.708 373.784L300.492 373.897L300.381 374.009C290.055 384.234 277.155 385.474 268.744 378.063L268.455 377.804C258.766 368.928 261.074 353.678 276.493 341.723C286.415 334.03 298.536 339.189 304.711 350.859ZM278.413 344.2C264.415 355.053 262.448 368.05 270.572 375.493C276.399 380.83 285.009 381.126 293.05 375.945L293.207 375.84L293.148 375.829C292.592 375.681 292.145 375.232 292.018 374.647L291.993 374.498C291.891 373.638 292.506 372.859 293.365 372.757C295.331 372.524 297.037 372.049 298.484 371.37L298.682 371.274L298.921 371.026C299.865 370.032 300.786 368.952 301.679 367.783L301.976 367.39C302.311 366.942 302.84 366.723 303.36 366.765L303.4 366.77L303.421 366.731C305.298 363.02 304.854 357.992 302.105 352.64L301.941 352.325C296.571 342.177 286.533 337.905 278.413 344.2ZM371.623 231.725C370.817 234.587 368.366 238.514 364.608 243.164C358.057 251.271 348.216 260.708 339.614 267.16L341.522 265.062C341.503 265.045 341.487 265.023 341.474 264.997L340.815 263.788C336.51 255.93 331.715 248.18 323.965 241.862C303.904 250.133 280.901 261.44 259.945 273.262L253.075 277.145C202.49 305.799 175.876 322.955 147.416 344.044C148.491 348.881 149.844 353.602 151.465 358.176C151.72 358.894 148.396 361.58 147.787 361.249C142.11 365.053 133.22 367.816 128.158 367.959C123.225 368.099 120.375 366.102 121.844 362.121C123.072 358.79 127.698 354.04 136.024 347.673L136.973 346.953L138.892 345.511C170.227 322.052 201.248 303.014 258.507 270.714L260.904 269.369C300.176 247.448 345.653 227.698 366.483 225.876C370.765 225.501 372.707 227.871 371.623 231.725ZM143.606 346.882L137.041 351.836C131.184 356.277 126.961 359.561 124.681 361.668L124.513 361.824C121.729 364.436 124.88 365.126 128.075 365.035C132.915 364.898 140.328 361.228 146.603 357.888C145.444 354.295 144.443 350.622 143.606 346.882ZM246.299 331C247.082 331.199 247.556 331.995 247.357 332.778C247.158 333.56 246.363 334.034 245.58 333.835C241.646 332.837 239.323 333.22 238.569 334.279C238.069 334.982 238.346 336.18 239.281 336.945C240.012 337.543 240.985 337.829 241.654 337.683C242.236 337.556 242.563 337.107 242.563 335.984C242.563 335.176 243.217 334.521 244.025 334.521C244.833 334.521 245.488 335.176 245.488 335.984C245.488 338.427 244.266 340.108 242.277 340.541C240.677 340.889 238.814 340.342 237.429 339.209C235.384 337.537 234.716 334.648 236.185 332.583C237.796 330.32 241.326 329.737 246.299 331ZM182.048 325.63C184.304 326.306 185.275 328.038 185.581 330.637L185.612 330.918L185.649 331.346C185.654 331.417 185.659 331.49 185.664 331.569L185.741 333.053L185.764 333.388C185.776 333.535 185.789 333.655 185.804 333.762L185.843 333.986L185.867 334.084L185.908 334.12C186.359 334.562 186.479 335.255 186.187 335.828L186.112 335.957C185.674 336.636 184.769 336.832 184.09 336.394C183.156 335.791 182.944 335.171 182.831 333.392L182.738 331.651C182.727 331.493 182.715 331.357 182.7 331.203C182.534 329.499 182.119 328.705 181.208 328.432C178.653 327.667 177.187 328.449 176.723 330.156C176.309 331.678 176.907 333.277 177.956 333.722L178.221 333.82C178.906 334.113 179.269 334.884 179.038 335.609C178.793 336.379 177.97 336.804 177.2 336.558C174.415 335.67 173.092 332.361 173.9 329.389C174.802 326.071 177.939 324.399 182.048 325.63ZM287.576 303.233C291.627 308.927 290.874 316.173 284.375 319.452C283.654 319.815 282.774 319.526 282.41 318.805C282.046 318.083 282.336 317.204 283.057 316.84C287.762 314.466 288.299 309.297 285.192 304.929C282.174 300.685 277.972 300.218 275.084 304.804C272.023 309.665 272.246 312.519 274.45 313.804C276.199 314.824 279.017 314.61 279.791 313.776L279.866 313.684C280.335 313.026 281.248 312.872 281.906 313.341C282.564 313.809 282.718 314.722 282.249 315.38C280.623 317.665 275.983 318.084 272.976 316.331C269.126 314.086 268.758 309.36 272.609 303.245C276.732 296.696 283.458 297.443 287.576 303.233ZM226.932 294.846C227.693 294.846 228.317 295.426 228.388 296.168L228.395 296.308C228.395 296.566 228.634 296.854 229.493 297.483L230.305 298.066C231.19 298.712 231.617 299.112 232.021 299.75C232.943 301.208 233.466 302.693 233.466 304.439C233.466 308.909 226.75 314.989 219.42 317.695C210.632 320.938 203.433 318.533 201.474 309.516C201.302 308.727 201.803 307.948 202.593 307.776C203.382 307.605 204.161 308.105 204.333 308.895C205.853 315.893 211.102 317.646 218.407 314.95C224.714 312.622 230.54 307.348 230.54 304.439C230.54 303.314 230.198 302.341 229.548 301.314L229.46 301.19C229.311 301.002 229.078 300.799 228.659 300.488L227.694 299.792C226.091 298.61 225.47 297.812 225.47 296.308C225.47 295.501 226.124 294.846 226.932 294.846ZM233.798 213.774L232.875 213.877C182.962 219.88 145.519 259.801 143.477 313.372L148.832 309.604C164.204 298.814 182.046 286.489 202.359 272.629L206.317 270.237C218.134 263.107 229.433 256.398 240.218 250.104C240.021 249.759 239.966 249.335 240.1 248.928C240.854 246.626 241.551 245.079 242.828 243.53C246.824 238.682 252.299 236.314 256.178 239.358C256.56 239.658 256.753 240.11 256.737 240.56L260.183 238.594C271.034 232.417 281.302 226.712 290.992 221.472L287.207 220.395C281.594 218.815 274.611 216.941 267.655 215.499C267.719 220.128 264.254 223.824 258.498 226.366C253.604 228.527 247.228 229.69 242.694 229.42C234.212 228.914 229.438 221.474 233.798 213.774ZM321.354 277.295C324.933 287.075 321.98 295.967 313.042 295.909C300.308 295.826 287.873 284.707 289.883 274.747C290.78 270.303 294.121 266.372 299.93 264.411C309.207 261.278 317.71 267.341 321.354 277.295ZM300.866 267.182C296.065 268.803 293.445 271.886 292.751 275.325C291.155 283.231 301.982 292.912 313.061 292.984C319.408 293.025 321.59 286.453 318.606 278.301C315.449 269.674 308.39 264.641 300.866 267.182ZM193.311 232.555L193.415 232.706L194.119 233.826C194.464 234.394 194.773 234.952 195.067 235.553C198.306 242.176 198.222 250.859 192.74 262.912C190.257 268.372 183.93 275.711 178.404 280.09C171.35 285.681 166.082 286.951 159.795 286.261L157.929 286.041L157.702 286.021C157.577 286.012 157.497 286.011 157.41 286.014L157.282 286.019C157.185 286.024 157.151 286.019 157.145 286.006L157.145 285.996L157.098 286.072C156.674 286.68 155.85 286.88 155.188 286.512C154.482 286.119 154.228 285.229 154.621 284.523C155.146 283.578 156.025 283.15 157.143 283.097C157.44 283.083 157.753 283.093 158.126 283.124L158.562 283.167L159.769 283.313C165.495 284.007 170.052 282.977 176.587 277.797C181.777 273.684 187.809 266.688 190.077 261.701C195.208 250.422 195.283 242.653 192.439 236.838C192.249 236.451 192.052 236.083 191.838 235.714L191.532 235.202L190.918 234.232C190.489 233.548 190.696 232.645 191.38 232.216C192.022 231.814 192.855 231.97 193.311 232.555ZM366.738 228.79C357.387 229.608 342.729 234.227 325.83 241.098L326.324 241.535C331.027 245.754 340.516 255.76 343.486 262.897L346.444 259.616C353.744 251.497 359.04 245.4 362.332 241.326L362.999 240.49C366.146 236.496 368.18 233.159 368.807 230.932L368.896 230.594C369.286 228.987 368.834 228.607 366.738 228.79ZM226.682 233.542C230.322 235.302 231.8 239.22 229.405 242.772C228.953 243.442 228.044 243.619 227.374 243.168C226.704 242.716 226.527 241.807 226.979 241.137C228.296 239.183 227.553 237.212 225.408 236.175C223.15 235.083 220.675 235.711 219.398 238.095C218.221 240.292 218.14 243.266 219.08 245.213C219.905 246.923 221.105 247.251 222.937 245.872C223.583 245.386 224.5 245.515 224.985 246.161C225.471 246.806 225.342 247.723 224.697 248.209C221.358 250.722 218.054 249.82 216.445 246.485C215.096 243.688 215.204 239.729 216.819 236.714C218.88 232.867 223.081 231.801 226.682 233.542ZM245.085 245.391C244.403 246.218 243.916 247.091 243.464 248.212C247.233 246.022 250.938 243.883 254.58 241.794L254.474 241.732L254.372 241.659C252.139 239.907 248.202 241.609 245.085 245.391ZM238.847 213.326L237.568 213.416L237.482 213.524C232.426 219.914 234.373 225.101 241.279 225.837C246.238 226.366 259.403 222.687 260.948 221.395C262.452 220.138 264.354 217.245 264.647 214.902C260.179 214.062 255.808 213.444 251.909 213.245C247.925 213.041 243.996 213.046 240.133 213.25L238.847 213.326Z" fill="#00160A"/>
<path d="M370.908 190.683C401.887 179.3 401.177 182.677 371.917 193.429C337.277 206.159 206.52 285.919 206.52 285.919C147.169 321.848 142.729 316.302 200.256 281.34L203.802 279.189C204.47 278.785 269.966 237.448 316.767 215.333C322.034 212.844 367.381 191.979 370.908 190.683Z" fill="white"/>
<path fill-rule="evenodd" clip-rule="evenodd" d="M424.399 134.01C414.8 133.519 407.307 140.979 407.229 150.739C407.164 158.917 411.855 165.86 418.577 167.246C420.348 167.611 425.456 167.611 429.887 165.125L430.254 164.923C435.841 161.76 439.64 155.742 440.149 150.791C441.05 142.014 433.998 134.501 424.399 134.01ZM409.319 150.756C409.319 150.693 409.32 150.63 409.321 150.567C409.381 150.548 409.44 150.523 409.497 150.492C417.023 146.438 421.669 143.348 423.524 141.117C424.749 139.645 425.346 137.983 425.298 136.178C426.562 136.318 427.766 136.595 428.895 136.992C428.889 137.046 428.886 137.102 428.888 137.158C428.98 139.756 428.287 141.832 426.815 143.449C425.123 145.308 423.074 147.076 420.743 148.743C418.252 150.526 415.577 152.1 412.901 153.448C412.277 153.763 411.683 154.049 411.126 154.308L410.318 154.674C410.202 154.725 410.095 154.772 409.996 154.815L409.756 154.916C409.46 153.599 409.307 152.203 409.319 150.756ZM410.343 156.936C411.005 158.771 411.963 160.397 413.15 161.722L413.774 161.362C423.595 155.676 429.693 151.209 432 148.058C434.333 144.872 435.165 142.426 434.643 140.762C434.631 140.723 434.621 140.684 434.614 140.644C433.586 139.565 432.362 138.638 430.983 137.905C430.924 140.667 430.051 142.999 428.36 144.856C426.562 146.832 424.402 148.695 421.959 150.443C419.373 152.294 416.607 153.921 413.841 155.314C413.035 155.721 412.275 156.083 411.577 156.4L410.762 156.761L410.343 156.936ZM418.165 164.989C416.931 164.62 415.782 164.015 414.747 163.213C424.857 157.366 431.149 152.758 433.686 149.293C435.26 147.143 436.267 145.21 436.676 143.485C437.184 144.435 437.569 145.448 437.816 146.505C437.763 146.613 437.728 146.732 437.715 146.858C437.46 149.301 436.201 151.725 433.899 154.14C431.69 156.457 426.922 159.8 419.636 164.123L418.165 164.989ZM421.697 165.327C423.94 165.185 426.683 164.527 428.899 163.284C433.022 161.073 436.332 156.91 437.582 152.898C436.978 153.804 436.254 154.698 435.412 155.582C433.143 157.961 428.583 161.196 421.697 165.327ZM409.926 147.88L409.555 148.082C410.741 141.178 416.257 136.224 423.203 136.08C423.277 137.437 422.855 138.654 421.917 139.782C420.402 141.604 416.381 144.332 409.926 147.88Z" fill="#00160A"/>
<path fill-rule="evenodd" clip-rule="evenodd" d="M499.825 113.99C500.02 114.012 500.156 114.188 500.134 114.382C500.133 114.667 499.949 114.821 499.703 114.921C499.48 115.011 499.125 114.976 498.919 115.004C496.656 115.179 494.877 113.514 494.095 111.368C493.343 109.307 493.543 106.842 494.908 105.322C495.065 105.143 495.337 105.125 495.516 105.282C495.695 105.439 496.713 105.712 496.556 105.891C495.431 107.204 494.67 108.001 495.731 111.118C496.792 114.235 499.68 113.973 499.825 113.99Z" fill="#E7EAEE"/>
<path fill-rule="evenodd" clip-rule="evenodd" d="M139.57 136.306C138.975 135.898 138.163 136.049 137.754 136.644C137.346 137.238 137.497 138.051 138.092 138.459C138.745 138.908 139.322 139.322 139.832 139.707C139.283 140.143 138.735 140.644 138.165 141.213L137.01 142.386C136.503 142.898 136.506 143.725 137.018 144.233C137.531 144.741 138.358 144.737 138.865 144.225L140.251 142.824C140.815 142.275 141.344 141.816 141.875 141.434C143.056 142.604 143.416 143.463 143.435 144.316L143.435 144.535L143.442 144.669C143.509 145.327 144.065 145.841 144.741 145.841C145.462 145.841 146.047 145.256 146.047 144.535L146.047 144.278C146.022 142.948 145.553 141.683 144.289 140.237C145.124 139.988 146.064 139.849 147.205 139.789C147.926 139.751 148.479 139.137 148.441 138.417C148.404 137.696 147.789 137.143 147.069 137.181C145.088 137.284 143.549 137.614 142.178 138.241C141.605 137.773 140.957 137.282 140.224 136.762L139.57 136.306Z" fill="#00160A"/>
<path fill-rule="evenodd" clip-rule="evenodd" d="M335.257 422.475L336.163 422.48C341.227 422.527 345.183 422.983 352.635 424.179C353.49 424.316 354.071 425.12 353.934 425.975C353.797 426.83 352.993 427.411 352.138 427.274L349.696 426.89C343.53 425.943 339.977 425.61 335.257 425.61C318.879 425.61 308.424 435.862 310.193 451.587C310.29 452.447 309.671 453.222 308.811 453.319C307.951 453.416 307.175 452.797 307.078 451.937C305.088 434.252 317.099 422.475 335.257 422.475ZM347.942 428.803L347.789 428.669C347.641 428.542 347.414 428.56 347.29 428.708C347.16 428.857 347.18 429.08 347.328 429.207L347.485 429.341C347.633 429.468 347.855 429.451 347.984 429.302C348.109 429.154 348.094 428.93 347.942 428.803ZM319.542 432.081C318.98 431.629 318.158 431.719 317.706 432.281C315.882 434.551 314.552 436.763 313.723 438.922C312.916 441.022 312.641 444.551 312.851 449.596L312.901 450.662C312.939 451.382 313.553 451.935 314.274 451.898C314.994 451.86 315.547 451.245 315.509 450.525C315.232 445.254 315.468 441.663 316.161 439.859C316.887 437.97 318.079 435.987 319.742 433.917C320.194 433.355 320.105 432.533 319.542 432.081ZM333.795 427.76C334.436 427.428 335.224 427.679 335.556 428.319C335.887 428.959 335.637 429.748 334.997 430.079C332.344 431.453 330.319 433.757 328.906 437.041C327.391 440.566 326.151 443.711 325.187 446.475C324.949 447.156 324.205 447.515 323.523 447.278C322.842 447.04 322.483 446.296 322.721 445.615C323.707 442.788 324.969 439.587 326.507 436.01C328.148 432.192 330.582 429.425 333.795 427.76ZM341.388 427.691C340.913 427.149 340.087 427.094 339.545 427.57C337.365 429.48 335.69 431.217 334.518 432.792C333.354 434.356 331.991 436.695 330.414 439.825C330.089 440.469 330.348 441.254 330.992 441.579C331.636 441.903 332.422 441.644 332.746 441C334.262 437.994 335.556 435.772 336.613 434.351C337.662 432.942 339.214 431.332 341.266 429.534C341.809 429.059 341.863 428.234 341.388 427.691ZM336.62 442.44C336.077 442.915 335.252 442.861 334.777 442.318C334.301 441.776 334.356 440.951 334.898 440.475C336.95 438.678 338.502 437.068 339.551 435.658C340.609 434.237 341.903 432.016 343.418 429.009C343.743 428.365 344.528 428.106 345.172 428.431C345.816 428.756 346.075 429.541 345.751 430.185C344.173 433.314 342.81 435.653 341.647 437.218C340.474 438.793 338.8 440.53 336.62 442.44ZM326.732 428.825C326.138 428.415 325.325 428.564 324.915 429.157C321.995 433.386 320.131 436.545 319.307 438.691C318.479 440.844 317.908 443.748 317.576 447.417C317.511 448.135 318.041 448.77 318.759 448.835C319.477 448.9 320.112 448.37 320.177 447.652C320.489 444.203 321.017 441.523 321.745 439.627C322.423 437.861 324.005 435.136 326.478 431.498L327.064 430.642C327.474 430.048 327.325 429.235 326.732 428.825Z" fill="#00160A"/>
<path fill-rule="evenodd" clip-rule="evenodd" d="M301.94 421.123L302.839 423.123L304.891 423.712C305.002 423.744 305.066 423.86 305.034 423.97C305.024 424.005 305.006 424.036 304.981 424.061L303.422 425.613L303.509 427.846C303.514 427.961 303.424 428.058 303.309 428.063C303.27 428.064 303.231 428.055 303.197 428.035L301.433 427.03C301.377 426.999 301.311 426.994 301.252 427.018L299.365 427.767C299.258 427.81 299.136 427.758 299.093 427.65C299.079 427.614 299.075 427.574 299.082 427.536L299.479 425.337L298.152 423.583C298.082 423.491 298.1 423.36 298.192 423.291C298.221 423.269 298.254 423.255 298.289 423.25L300.403 422.953L301.572 421.098C301.634 421 301.763 420.971 301.86 421.032C301.895 421.054 301.923 421.086 301.94 421.123Z" fill="#00160A"/>
<path fill-rule="evenodd" clip-rule="evenodd" d="M374.61 141.137C375.091 141.564 375.69 142.332 376.22 143.164L376.902 142.861L377.708 142.516C377.87 142.442 377.974 142.384 378.006 142.337C378.099 142.164 378.314 142.098 378.488 142.19C378.658 142.282 378.727 142.496 378.634 142.669C378.571 142.833 378.118 143.347 377.277 143.851C377.125 143.942 376.956 144.027 376.776 144.109C377.086 144.689 377.329 145.25 377.444 145.699C377.616 146.361 377.479 146.831 377.251 146.996C377.028 147.159 376.469 147.189 375.618 146.483C375.461 146.363 375.437 146.141 375.556 145.986C375.675 145.831 375.896 145.803 376.053 145.922C376.215 146.042 376.378 146.109 376.511 146.158L376.446 145.905C376.421 145.814 376.39 145.719 376.346 145.627C376.194 145.294 376 144.913 375.782 144.521C375.117 144.773 374.359 145.001 373.541 145.111C373.143 145.164 372.736 145.175 372.314 145.171C372.072 145.187 371.861 145.003 371.845 144.76C371.829 144.517 372.013 144.307 372.256 144.291C373.24 144.196 374.15 143.947 374.953 143.668L375.216 143.573C374.782 142.894 374.316 142.277 373.917 141.928C373.701 141.737 373.679 141.404 373.868 141.186C374.063 140.967 374.394 140.946 374.61 141.137Z" fill="#00160A"/>
<path fill-rule="evenodd" clip-rule="evenodd" d="M87.0543 317.942C85.6884 318.031 83.5223 318.38 81.7517 319.082C80.2372 319.683 80.2372 336.034 85.4152 337.337C90.5633 339.054 96.1925 336.781 95.5204 328.031C95.5083 327.848 95.3601 327.351 95.1903 326.78C94.9416 325.945 94.6464 324.953 94.6642 324.566C94.7341 323.192 94.3731 322.033 93.4203 321.306C92.3938 319.13 90.3822 317.727 87.0543 317.942ZM86.313 333.357C83.7789 331.463 83.8679 322.626 86.76 322.036C88.5599 323.42 90.2029 325.417 90.7571 329.266C90.1369 331.386 88.8277 332.613 87.6829 333.685C87.5605 333.8 87.4399 333.913 87.3222 334.025C86.9954 333.839 86.6587 333.612 86.313 333.357Z" fill="white"/>
<path fill-rule="evenodd" clip-rule="evenodd" d="M83.2355 328.205C83.0057 326.831 83.1624 325.292 83.8536 323.649C84.167 322.905 84.991 322.299 86.0219 321.892C87.2271 321.416 88.7013 321.18 89.6308 321.119C91.8956 320.973 93.2642 321.921 93.9621 323.393C94.6103 323.884 94.8557 324.668 94.8077 325.597C94.7872 326.038 95.3693 327.636 95.3894 327.941C95.8444 333.858 92.0129 335.397 88.5099 334.238C87.179 334.914 85.8953 335.026 84.9292 334.308C84.0626 333.667 83.3973 332.314 83.2449 329.929C83.2043 329.314 83.2012 328.739 83.2355 328.205ZM89.4489 324.308C87.439 324.703 87.3549 330.505 89.11 331.742C89.3495 331.909 89.5827 332.057 89.8092 332.178C90.6576 331.413 91.2902 330.795 91.6492 329.529C92.0081 328.264 90.6954 325.212 89.4489 324.308Z" fill="#BD00FF"/>
<path fill-rule="evenodd" clip-rule="evenodd" d="M220.397 473.115C219.803 472.706 218.99 472.858 218.581 473.452C218.173 474.047 218.324 474.86 218.919 475.268C219.572 475.716 220.149 476.131 220.659 476.515C220.11 476.952 219.562 477.452 218.992 478.021L217.837 479.195C217.33 479.707 217.333 480.534 217.846 481.041C218.358 481.549 219.185 481.546 219.692 481.033L221.078 479.633C221.642 479.083 222.171 478.624 222.702 478.242C223.883 479.413 224.243 480.271 224.262 481.125L224.262 481.344L224.269 481.477C224.336 482.136 224.892 482.65 225.568 482.65C226.289 482.65 226.874 482.065 226.874 481.344L226.874 481.087C226.849 479.756 226.38 478.491 225.116 477.045C225.951 476.796 226.892 476.657 228.033 476.597C228.753 476.56 229.306 475.945 229.269 475.225C229.231 474.505 228.617 473.951 227.896 473.989C225.916 474.093 224.376 474.423 223.005 475.05C222.433 474.582 221.784 474.091 221.051 473.571L220.397 473.115Z" fill="#00160A"/>
<path fill-rule="evenodd" clip-rule="evenodd" d="M220.397 473.115C219.803 472.706 218.99 472.858 218.581 473.452C218.173 474.047 218.324 474.86 218.919 475.268C219.572 475.716 220.149 476.131 220.659 476.515C220.11 476.952 219.562 477.452 218.992 478.021L217.837 479.195C217.33 479.707 217.333 480.534 217.846 481.041C218.358 481.549 219.185 481.546 219.692 481.033L221.078 479.633C221.642 479.083 222.171 478.624 222.702 478.242C223.883 479.413 224.243 480.271 224.262 481.125L224.262 481.344L224.269 481.477C224.336 482.136 224.892 482.65 225.568 482.65C226.289 482.65 226.874 482.065 226.874 481.344L226.874 481.087C226.849 479.756 226.38 478.491 225.116 477.045C225.951 476.796 226.892 476.657 228.033 476.597C228.753 476.56 229.306 475.945 229.269 475.225C229.231 474.505 228.617 473.951 227.896 473.989C225.916 474.093 224.376 474.423 223.005 475.05C222.433 474.582 221.784 474.091 221.051 473.571L220.397 473.115Z" fill="#00160A"/>
<path fill-rule="evenodd" clip-rule="evenodd" d="M265.031 437.336L265.931 439.336L267.983 439.925C268.094 439.957 268.158 440.073 268.126 440.183C268.116 440.218 268.098 440.249 268.073 440.274L266.514 441.826L266.601 444.059C266.606 444.174 266.516 444.271 266.401 444.276C266.362 444.277 266.323 444.268 266.289 444.248L264.524 443.243C264.469 443.212 264.403 443.207 264.344 443.231L262.457 443.98C262.349 444.023 262.228 443.971 262.185 443.863C262.171 443.827 262.167 443.787 262.174 443.749L262.571 441.55L261.244 439.796C261.174 439.704 261.192 439.573 261.284 439.504C261.312 439.482 261.346 439.468 261.381 439.463L263.495 439.166L264.664 437.311C264.726 437.213 264.855 437.184 264.952 437.245C264.987 437.267 265.014 437.299 265.031 437.336Z" fill="#00160A"/>
<path fill-rule="evenodd" clip-rule="evenodd" d="M151.811 423.595L153.341 425.166L155.47 425.018C155.585 425.01 155.685 425.097 155.693 425.212C155.696 425.247 155.689 425.283 155.674 425.315L154.74 427.306L155.586 429.375C155.629 429.481 155.578 429.603 155.471 429.647C155.435 429.662 155.396 429.666 155.357 429.66L153.355 429.319C153.293 429.308 153.229 429.327 153.181 429.369L151.664 430.719C151.578 430.795 151.446 430.788 151.369 430.701C151.343 430.672 151.326 430.636 151.319 430.598L150.941 428.396L149.093 427.202C148.996 427.139 148.969 427.01 149.031 426.913C149.051 426.883 149.077 426.859 149.109 426.842L150.993 425.839L151.457 423.696C151.482 423.583 151.593 423.512 151.706 423.536C151.746 423.545 151.783 423.565 151.811 423.595Z" fill="#00160A"/>
<path fill-rule="evenodd" clip-rule="evenodd" d="M127.924 280.379L128.824 282.379L130.875 282.968C130.986 283 131.05 283.115 131.019 283.226C131.009 283.26 130.99 283.292 130.965 283.317L129.406 284.868L129.494 287.101C129.498 287.217 129.408 287.314 129.293 287.318C129.254 287.32 129.216 287.311 129.182 287.291L127.417 286.286C127.362 286.255 127.295 286.25 127.236 286.274L125.349 287.023C125.242 287.066 125.12 287.013 125.078 286.906C125.063 286.87 125.059 286.83 125.066 286.792L125.464 284.593L124.136 282.839C124.066 282.747 124.085 282.616 124.177 282.546C124.205 282.525 124.238 282.511 124.274 282.506L126.387 282.209L127.557 280.353C127.618 280.256 127.747 280.227 127.845 280.288C127.88 280.31 127.907 280.342 127.924 280.379Z" fill="#00160A"/>
<path fill-rule="evenodd" clip-rule="evenodd" d="M127.715 282.371L128.097 283.22L128.968 283.471C129.016 283.484 129.043 283.533 129.029 283.58C129.025 283.595 129.017 283.608 129.007 283.619L128.345 284.278L128.382 285.226C128.384 285.275 128.345 285.317 128.296 285.319C128.28 285.319 128.263 285.315 128.249 285.307L127.499 284.88C127.476 284.867 127.448 284.865 127.423 284.875L126.621 285.193C126.576 285.211 126.524 285.189 126.506 285.143C126.5 285.128 126.498 285.111 126.501 285.095L126.67 284.161L126.106 283.416C126.076 283.377 126.084 283.321 126.123 283.292C126.135 283.282 126.149 283.277 126.164 283.274L127.062 283.148L127.559 282.36C127.585 282.319 127.64 282.306 127.681 282.332C127.696 282.342 127.708 282.355 127.715 282.371Z" fill="#E7EAEE"/>
<path fill-rule="evenodd" clip-rule="evenodd" d="M20.9395 368.123L21.8395 370.123L23.891 370.712C24.0019 370.744 24.066 370.86 24.0342 370.97C24.0244 371.005 24.006 371.036 23.9808 371.061L22.4221 372.613L22.5094 374.846C22.5139 374.961 22.4241 375.058 22.3088 375.063C22.2698 375.064 22.2311 375.055 22.1972 375.035L20.4326 374.03C20.3775 373.999 20.3111 373.994 20.2521 374.018L18.3648 374.767C18.2576 374.81 18.1361 374.758 18.0935 374.65C18.0791 374.614 18.0751 374.574 18.0821 374.536L18.4793 372.337L17.1517 370.583C17.0821 370.491 17.1002 370.36 17.1922 370.291C17.2206 370.269 17.254 370.255 17.2892 370.25L19.4027 369.953L20.5722 368.098C20.6338 368 20.7628 367.971 20.8604 368.032C20.8952 368.054 20.9227 368.086 20.9395 368.123Z" fill="#00160A"/>
<path fill-rule="evenodd" clip-rule="evenodd" d="M111.361 188.545L112.014 189.001C112.748 189.522 115.487 192.103 116.059 192.571C117.429 191.943 118.968 191.612 120.949 191.509C121.669 191.471 122.284 192.025 122.321 192.745C122.359 193.465 121.806 194.08 121.085 194.117C119.944 194.177 119.003 194.316 118.168 194.565C119.433 196.012 119.902 197.277 119.927 198.607L119.927 198.864C119.927 199.585 119.342 200.17 118.621 200.17C117.945 200.17 117.389 199.656 117.322 198.997L117.315 198.864L117.315 198.645C117.296 197.791 116.936 196.933 115.755 195.763C115.224 196.144 114.695 196.603 114.131 197.153L112.745 198.553C112.238 199.066 111.411 199.069 110.898 198.561C110.386 198.054 110.383 197.227 110.89 196.715L112.045 195.541C112.615 194.972 113.163 194.472 113.711 194.035C112.748 191.836 109.136 189.477 109.545 188.883C109.953 188.288 110.766 188.137 111.361 188.545Z" fill="#00160A"/>
<path fill-rule="evenodd" clip-rule="evenodd" d="M363.335 339.161L365.115 340.443L367.186 339.928C367.298 339.9 367.411 339.968 367.439 340.08C367.448 340.114 367.447 340.15 367.438 340.185L366.864 342.308L368.056 344.198C368.118 344.296 368.088 344.425 367.991 344.486C367.958 344.507 367.92 344.518 367.881 344.519L365.85 344.531C365.786 344.531 365.727 344.56 365.687 344.61L364.428 346.203C364.356 346.293 364.225 346.309 364.134 346.237C364.103 346.213 364.08 346.18 364.067 346.144L363.311 344.041L361.285 343.186C361.179 343.141 361.129 343.018 361.174 342.912C361.188 342.879 361.21 342.851 361.238 342.829L362.919 341.514L363.004 339.323C363.009 339.207 363.106 339.118 363.221 339.122C363.262 339.124 363.302 339.137 363.335 339.161Z" fill="#00160A"/>
<path fill-rule="evenodd" clip-rule="evenodd" d="M383.774 257.311L384.313 259.437L386.231 260.373C386.335 260.424 386.378 260.549 386.327 260.652C386.312 260.684 386.288 260.712 386.259 260.732L384.455 261.99L384.153 264.204C384.137 264.318 384.032 264.398 383.918 264.383C383.879 264.377 383.843 264.361 383.813 264.337L382.249 263.04C382.2 263 382.136 262.984 382.074 262.997L380.085 263.407C379.972 263.43 379.861 263.358 379.838 263.245C379.83 263.207 379.833 263.167 379.847 263.13L380.62 261.033L379.617 259.076C379.564 258.973 379.605 258.847 379.707 258.795C379.739 258.779 379.774 258.771 379.81 258.772L381.943 258.846L383.417 257.222C383.495 257.137 383.627 257.13 383.712 257.208C383.743 257.235 383.764 257.271 383.774 257.311Z" fill="#00160A"/>
<path fill-rule="evenodd" clip-rule="evenodd" d="M337.23 171.757L337.769 173.883L339.687 174.819C339.791 174.869 339.834 174.994 339.784 175.098C339.768 175.13 339.744 175.158 339.715 175.178L337.911 176.435L337.609 178.65C337.593 178.764 337.488 178.844 337.374 178.829C337.335 178.823 337.299 178.807 337.269 178.782L335.705 177.486C335.656 177.446 335.592 177.43 335.53 177.442L333.541 177.853C333.428 177.876 333.317 177.804 333.294 177.691C333.286 177.652 333.289 177.613 333.303 177.576L334.076 175.479L333.073 173.522C333.02 173.419 333.061 173.293 333.164 173.241C333.195 173.224 333.23 173.216 333.266 173.218L335.399 173.292L336.873 171.668C336.951 171.582 337.083 171.576 337.168 171.653C337.199 171.681 337.22 171.717 337.23 171.757Z" fill="#00160A"/>
<path fill-rule="evenodd" clip-rule="evenodd" d="M474.736 192.586L475.53 192.515C476.426 192.442 477.24 192.401 477.98 192.392C478.625 191.03 479.592 189.788 481.043 188.435C481.57 187.943 482.397 187.972 482.888 188.5C483.38 189.028 483.351 189.854 482.824 190.346C481.988 191.125 481.356 191.837 480.877 192.564C482.776 192.859 483.948 193.527 484.822 194.53L484.987 194.726C485.45 195.279 485.378 196.103 484.826 196.566C484.308 197.001 483.552 196.965 483.077 196.503L482.986 196.405L482.845 196.238C482.282 195.596 481.455 195.17 479.798 195.032C479.636 195.666 479.526 196.358 479.447 197.141L479.286 199.105C479.226 199.824 478.595 200.358 477.876 200.298C477.158 200.239 476.623 199.607 476.683 198.889L476.814 197.248C476.884 196.445 476.982 195.71 477.122 195.023C476.485 195.055 475.777 195.109 474.987 195.186C474.27 195.255 473.631 194.729 473.562 194.011C473.492 193.294 474.018 192.655 474.736 192.586Z" fill="#00160A"/>
<path fill-rule="evenodd" clip-rule="evenodd" d="M369.278 282.737C369.042 283.334 368.525 284.161 367.924 284.943L368.442 285.48L369.042 286.119L369.175 286.247C369.234 286.299 369.279 286.33 369.312 286.339C369.507 286.367 369.642 286.546 369.615 286.741C369.587 286.932 369.409 287.07 369.215 287.042C369.039 287.038 368.401 286.789 367.641 286.171C367.503 286.059 367.365 285.93 367.226 285.789C366.787 286.278 366.344 286.699 365.961 286.96C365.397 287.349 364.909 287.38 364.676 287.222C364.447 287.069 364.227 286.554 364.6 285.513C364.658 285.324 364.859 285.225 365.045 285.284C365.231 285.343 365.334 285.541 365.275 285.729C365.218 285.922 365.211 286.099 365.21 286.24L365.426 286.093C365.503 286.038 365.581 285.977 365.653 285.904C365.914 285.647 366.206 285.334 366.499 284.996C366.035 284.456 365.562 283.823 365.179 283.092C364.992 282.735 364.843 282.357 364.702 281.959C364.604 281.737 364.705 281.476 364.928 281.377C365.151 281.279 365.412 281.381 365.51 281.603C365.936 282.496 366.48 283.266 367.018 283.925L367.197 284.14C367.686 283.499 368.107 282.851 368.298 282.357C368.404 282.088 368.709 281.954 368.978 282.057C369.25 282.164 369.384 282.468 369.278 282.737Z" fill="#E7EAEE"/>
<path fill-rule="evenodd" clip-rule="evenodd" d="M356.527 16.5761C357.323 16.4375 358.08 16.9703 358.219 17.7661C358.357 18.562 357.825 19.3195 357.029 19.4581C353.244 20.1174 348.688 22.3799 344.753 26.024C339.643 30.7559 335.873 37.4344 334.012 46.1521C332.513 53.1757 333.89 62.4232 337.81 70.1383C342.268 78.9159 349.436 84.8838 358.633 86.5637C368.074 88.2882 376.062 87.2172 384.984 84.0455L385.805 83.7472C386.066 83.6485 386.531 83.4691 387.115 83.2439L387.116 83.2434C389.264 82.4145 393.019 80.9661 394.096 80.6402C396.981 79.7679 398.948 79.8409 400.375 81.3613C400.928 81.9503 400.898 82.876 400.309 83.4288C399.757 83.947 398.909 83.9536 398.349 83.467L398.242 83.3631C397.821 82.9146 396.951 82.8626 395.199 83.3648L394.943 83.4403C393.993 83.7277 390.516 85.0682 388.349 85.904L388.348 85.9041L388.348 85.9042L388.348 85.9044C387.508 86.2282 386.865 86.4761 386.642 86.5577C377.005 90.0752 368.358 91.3138 358.107 89.4414C347.949 87.586 340.051 81.0098 335.201 71.4632C330.987 63.1665 329.508 53.2392 331.151 45.5414C333.137 36.2372 337.21 29.0213 342.765 23.8775C347.114 19.851 352.185 17.3325 356.527 16.5761ZM366.419 23.6424C367.212 23.4872 367.98 24.004 368.136 24.7968C368.291 25.5895 367.774 26.358 366.981 26.5133C355.126 28.835 345.593 37.8899 342.828 49.8669C341.892 53.9204 342.175 57.2163 343.093 58.4738L343.215 58.6314L343.225 58.6534L343.242 58.6401C343.571 58.3434 343.955 57.5853 344.253 56.41L344.316 56.1518C347.159 43.8337 356.551 34.2987 368.546 31.0965C369.326 30.8882 370.128 31.352 370.336 32.1325C370.545 32.913 370.081 33.7146 369.3 33.9229C358.493 36.8079 350.003 45.3163 347.278 56.3425L347.166 56.8098C346.163 61.1543 343.283 63.2282 340.95 60.4781C339.244 58.4667 338.825 54.1986 339.977 49.2089C343.004 36.0973 353.442 26.184 366.419 23.6424ZM384.011 39.6971C383.953 38.8913 383.254 38.2847 382.448 38.3422C368.212 39.3579 355.727 48.6043 350.76 62.2516C348.875 67.4301 348.763 72.0354 350.306 74.3839C352.376 77.5342 355.632 75.7472 357.255 71.2867L357.426 70.829C361.819 59.2794 372.112 51.2129 384.163 49.5308C384.963 49.4191 385.521 48.68 385.409 47.8799C385.297 47.0799 384.558 46.5218 383.758 46.6335C370.487 48.486 359.173 57.4648 354.506 70.2862L354.403 70.5601C353.885 71.8946 353.316 72.6991 352.886 72.9353L352.867 72.9481C352.863 72.9507 352.861 72.9529 352.859 72.9548C352.856 72.9579 352.854 72.9597 352.852 72.9594C352.85 72.9591 352.848 72.955 352.844 72.9453C352.835 72.9237 352.814 72.8744 352.751 72.7775L352.673 72.6502C351.824 71.1451 351.954 67.5242 353.509 63.2521C358.078 50.699 369.561 42.1944 382.656 41.2602C383.462 41.2027 384.068 40.5029 384.011 39.6971ZM390.381 53.9165C391.187 53.859 391.887 54.4656 391.944 55.2714C392.002 56.0771 391.395 56.7769 390.59 56.8344C381.408 57.4895 373.357 63.4521 370.154 72.2534C369.204 74.8624 369.028 77.093 369.367 78.2227L369.409 78.3488L369.474 78.2555C369.637 78.0078 369.821 77.652 370.001 77.1906L370.078 76.9864C373.462 67.6899 381.666 61.1793 391.288 59.8361C392.088 59.7245 392.827 60.2825 392.939 61.0826C393.051 61.8826 392.493 62.6217 391.693 62.7334C383.275 63.9084 376.081 69.5262 372.981 77.5756L372.827 77.9869C371.573 81.4344 368.859 82.9237 367.124 80.2839C365.936 78.475 366.019 75.0601 367.405 71.2529C371.006 61.3574 380.059 54.6529 390.381 53.9165ZM398.09 65.7015C398.033 64.8957 397.333 64.2891 396.527 64.3466C389.615 64.8398 383.552 69.33 381.14 75.957C380.189 78.5697 380.131 80.9475 381.011 82.2864C382.453 84.4815 384.694 83.2515 385.627 80.6866L385.755 80.3497C387.719 75.3313 392.222 71.8324 397.487 71.0976C398.287 70.9859 398.845 70.2468 398.734 69.4467C398.622 68.6466 397.883 68.0886 397.083 68.2003L396.712 68.256C391.045 69.1689 386.155 72.7661 383.62 77.9432L383.531 78.1275L383.586 77.9176C383.667 77.6121 383.767 77.2906 383.889 76.9576C385.902 71.4247 390.963 67.6764 396.735 67.2646C397.541 67.2071 398.148 66.5073 398.09 65.7015Z" fill="#00160A"/>
<path fill-rule="evenodd" clip-rule="evenodd" d="M390.381 53.9165C391.187 53.859 391.887 54.4656 391.944 55.2714C392.002 56.0771 391.395 56.7769 390.59 56.8344C381.408 57.4895 373.357 63.4521 370.154 72.2534C369.204 74.8624 369.028 77.093 369.367 78.2227L369.409 78.3488L369.474 78.2555C369.637 78.0078 369.821 77.652 370.001 77.1906L370.078 76.9864C373.462 67.6899 381.666 61.1793 391.288 59.8361C392.088 59.7245 392.827 60.2825 392.939 61.0826C393.051 61.8826 392.493 62.6217 391.693 62.7334C383.275 63.9084 376.081 69.5262 372.981 77.5756L372.827 77.9869C371.573 81.4344 368.859 82.9237 367.124 80.2839C365.936 78.475 366.019 75.0601 367.405 71.2529C371.006 61.3574 380.059 54.6529 390.381 53.9165Z" fill="#00160A"/>
<path d="M299.288 244.355C329.952 230.012 355.591 222.435 371.553 221.044C376.441 220.618 378.659 223.313 377.42 227.697C376.501 230.951 373.702 235.418 369.412 240.708C361.932 249.928 352.07 257.819 342.249 265.158C357.961 250.656 361.968 244.59 366.814 238.616L367.575 237.666C371.168 233.123 373.49 229.328 374.205 226.795L374.307 226.411C374.753 224.583 374.237 224.15 371.844 224.359C356.243 225.718 330.702 233.31 300.15 247.634C269.548 261.981 268.673 258.675 299.288 244.355Z" fill="white"/>
<path d="M159.041 197.955L159.265 198.488C160.818 202.172 162.433 205.82 164.265 209.798L164.977 211.342C164.744 211.499 164.437 211.665 164.099 211.813C163.614 212.024 163.122 212.173 162.752 212.223L162.634 212.235L162.456 212.021C161.071 210.317 159.464 207.42 158.303 204.54C157.684 203.006 157.244 201.599 157.045 200.518C156.964 200.077 156.927 199.707 156.93 199.426L156.938 199.241C156.941 199.196 156.941 199.173 156.93 199.17L156.974 199.14C157.221 198.97 157.853 198.6 158.791 198.09L159.041 197.955Z" fill="white"/>
<path fill-rule="evenodd" clip-rule="evenodd" d="M197.806 184.611C198.766 183.436 200.01 183.611 201.586 184.568L201.991 184.823L203.125 185.574C203.442 185.777 203.579 185.847 203.764 185.921C204.193 186.092 204.402 186.578 204.231 187.007C204.06 187.436 203.574 187.645 203.145 187.474L202.993 187.411C202.703 187.287 202.484 187.158 201.897 186.769L201.084 186.227C200.95 186.139 200.834 186.066 200.72 185.997C199.777 185.425 199.349 185.365 199.1 185.669C198.944 185.86 198.982 186.269 199.293 187.106L199.634 187.985C200.312 189.784 200.316 190.589 199.108 191.275C198.069 191.867 197.536 191.59 196.043 190.128L195.68 189.769C194.724 188.814 194.223 188.482 193.9 188.55C193.793 188.573 193.668 188.649 193.515 188.811C193.336 189.002 193.285 189.613 193.395 190.696L193.564 192.111C193.76 193.84 193.681 194.288 192.967 194.766C191.984 195.424 190.676 194.68 188.251 192.503C187.908 192.195 187.879 191.666 188.188 191.323C188.496 190.979 189.024 190.951 189.368 191.259C190.404 192.19 191.187 192.796 191.734 193.107L191.856 193.174L191.959 193.225L191.961 193.12L191.954 192.87C191.944 192.665 191.918 192.417 191.867 191.995L191.761 191.127C191.557 189.367 191.621 188.388 192.296 187.668C192.671 187.268 193.092 187.012 193.554 186.914C194.628 186.687 195.391 187.146 196.657 188.384L197.297 189.013C197.986 189.676 198.242 189.845 198.282 189.822C198.439 189.733 198.415 189.456 197.991 188.369L197.806 187.898C197.215 186.38 197.103 185.472 197.806 184.611Z" fill="#00160A"/>
<path fill-rule="evenodd" clip-rule="evenodd" d="M289.054 48.5669L288.26 48.6378C287.542 48.7072 287.016 49.3455 287.086 50.0634C287.128 50.4974 287.377 50.8612 287.727 51.0657L287.589 51.1638C287 51.5801 286.86 52.395 287.277 52.984C287.693 53.573 288.508 53.713 289.097 53.2967L290.439 52.3463C290.4 52.6537 290.366 52.971 290.338 53.2996L290.207 54.9406C290.147 55.6594 290.681 56.2905 291.4 56.3502C292.119 56.4099 292.75 55.8755 292.81 55.1568L292.971 53.1931C293.013 52.7728 293.065 52.3789 293.128 52.0061C293.587 52.8761 293.678 53.5463 293.581 54.1802L293.543 54.3958L293.527 54.5285C293.478 55.1886 293.937 55.7913 294.603 55.9087C295.313 56.0339 295.99 55.5596 296.116 54.8493L296.16 54.5964C296.299 53.7151 296.235 52.8278 295.878 51.8429C296.065 51.9771 296.226 52.1263 296.369 52.2895L296.51 52.4572L296.601 52.5551C297.075 53.0166 297.832 53.0528 298.35 52.6181C298.902 52.1545 298.974 51.3308 298.511 50.7782L298.345 50.5816C298.287 50.5143 298.227 50.4485 298.165 50.3842C298.847 50.4239 299.452 49.9272 299.536 49.2397C299.624 48.5238 299.115 47.8721 298.399 47.7841C297.168 47.6327 296.091 47.5986 295.101 47.6875C295.456 47.2694 295.868 46.8447 296.347 46.3978C296.875 45.906 296.904 45.0796 296.412 44.552C295.92 44.0244 295.094 43.9954 294.566 44.4872C293.681 45.3123 292.976 46.0963 292.415 46.8914C292.198 46.6614 291.97 46.4255 291.731 46.1835L291.166 45.6208C290.651 45.1155 289.825 45.1231 289.319 45.6378C288.814 46.1525 288.822 46.9793 289.336 47.4846C289.694 47.8355 290.023 48.1675 290.327 48.4821C289.922 48.5026 289.498 48.5308 289.054 48.5669Z" fill="#00160A"/>
<path fill-rule="evenodd" clip-rule="evenodd" d="M238.723 57.6157C238.41 57.2943 237.902 57.3033 237.59 57.6358C237.277 57.9683 237.277 58.4983 237.591 58.8198C237.888 59.1246 238.154 59.4071 238.391 59.6701C237.889 59.883 237.385 60.1587 236.845 60.4992L236.026 61.0245C235.667 61.2536 235.588 61.7118 235.851 62.0481C236.114 62.3843 236.618 62.4712 236.978 62.2421L237.96 61.6155C238.473 61.3014 238.935 61.0637 239.4 60.8969C240.106 61.8787 240.253 62.508 240.163 63.0914L240.139 63.2298L240.128 63.3149C240.095 63.7384 240.374 64.1225 240.782 64.1945C241.217 64.2713 241.635 63.9638 241.716 63.5078L241.744 63.3454C241.878 62.4992 241.735 61.6466 241.128 60.5935C241.54 60.5871 241.988 60.6176 242.497 60.6826C242.939 60.7392 243.337 60.4585 243.384 60.0556C243.432 59.6528 243.111 59.2803 242.668 59.2237C241.697 59.0995 240.883 59.0854 240.138 59.186C239.832 58.8091 239.477 58.4068 239.067 57.9737L238.723 57.6157Z" fill="#E7EAEE"/>
<path fill-rule="evenodd" clip-rule="evenodd" d="M70.422 275.336L71.3219 277.336L73.3734 277.925C73.4844 277.957 73.5485 278.073 73.5166 278.183C73.5068 278.218 73.4884 278.249 73.4632 278.274L71.9045 279.826L71.9918 282.059C71.9964 282.174 71.9065 282.271 71.7912 282.276C71.7522 282.277 71.7136 282.268 71.6796 282.248L69.9151 281.243C69.8599 281.212 69.7935 281.207 69.7345 281.231L67.8472 281.98C67.74 282.023 67.6185 281.971 67.5759 281.863C67.5615 281.827 67.5575 281.787 67.5645 281.749L67.9617 279.55L66.6342 277.796C66.5645 277.704 66.5826 277.573 66.6746 277.504C66.703 277.482 66.7364 277.468 66.7716 277.463L68.8851 277.166L70.0546 275.311C70.1162 275.213 70.2452 275.184 70.3428 275.245C70.3776 275.267 70.4051 275.299 70.422 275.336Z" fill="#00160A"/>
<path fill-rule="evenodd" clip-rule="evenodd" d="M82.422 164.336L83.3219 166.336L85.3734 166.925C85.4844 166.957 85.5485 167.073 85.5166 167.183C85.5068 167.218 85.4884 167.249 85.4632 167.274L83.9045 168.826L83.9918 171.059C83.9964 171.174 83.9065 171.271 83.7912 171.276C83.7522 171.277 83.7136 171.268 83.6796 171.248L81.9151 170.243C81.8599 170.212 81.7935 170.207 81.7345 170.231L79.8472 170.98C79.74 171.023 79.6185 170.971 79.5759 170.863C79.5615 170.827 79.5575 170.787 79.5645 170.749L79.9617 168.55L78.6342 166.796C78.5645 166.704 78.5826 166.573 78.6746 166.504C78.703 166.482 78.7364 166.468 78.7716 166.463L80.8851 166.166L82.0546 164.311C82.1162 164.213 82.2452 164.184 82.3428 164.245C82.3776 164.267 82.4051 164.299 82.422 164.336Z" fill="#00160A"/>
<path d="M109.604 341.061C110.274 340.574 111.212 340.723 111.699 341.393C112.186 342.064 90.9644 359.349 82.7321 367.27L81.7753 368.198C77.0732 372.799 73.6063 376.783 71.6521 379.932C69.5814 383.27 69.4486 385.082 70.7854 385.823C75.8576 388.634 83.1503 390.004 93.5948 388.274L94.6681 388.091C98.6437 387.394 128.55 380.872 128.077 381.045L127.893 381.1C126.95 381.35 114.773 385.561 110.57 386.631L110.062 386.76C103.636 388.376 98.6082 389.484 94.0851 390.233C83.0324 392.064 75.1356 391.664 69.3313 388.447C65.9818 386.591 66.2485 382.951 69.103 378.351C71.348 374.733 75.297 370.261 80.652 365.108C88.9944 357.081 100.728 347.506 109.604 341.061Z" fill="white"/>
<path fill-rule="evenodd" clip-rule="evenodd" d="M265.858 133.132C266.224 132.888 266.715 132.992 266.955 133.364L272.37 141.754C272.61 142.126 272.508 142.625 272.142 142.868C271.776 143.112 271.285 143.008 271.045 142.636L265.63 134.246C265.39 133.874 265.492 133.375 265.858 133.132Z" fill="#00160A"/>
<path fill-rule="evenodd" clip-rule="evenodd" d="M266.123 126.933C266.542 126.686 267.097 126.81 267.361 127.21L271.087 132.854C271.352 133.254 271.226 133.779 270.806 134.026C270.387 134.273 269.833 134.149 269.569 133.748L265.842 128.104C265.578 127.704 265.704 127.18 266.123 126.933Z" fill="#00160A"/>
</g>
<defs>
<clipPath id="clip0">
<rect width="523.028" height="490.004" fill="white" transform="translate(0.614258)"/>
</clipPath>
</defs>
</svg>
