<svg width="1542" height="830" viewBox="0 0 1542 830" fill="none" xmlns="http://www.w3.org/2000/svg">
<path fill-rule="evenodd" clip-rule="evenodd" d="M273.368 241.62L300.485 246.29C326.852 251.247 380.621 261.625 426.231 288.858C472.358 316.323 510.094 361.163 571.22 353.703C632.863 346.474 717.38 286.714 788.927 255.952C860.76 225.94 919.339 224.176 957.592 269.247C995.559 313.568 1012.45 405.011 1053.48 443.868C1093.77 483.012 1157.96 470.087 1221.63 456.931C1285.54 443.257 1349.73 430.333 1390.01 469.476C1430.53 508.102 1447.94 599.776 1456.24 645.123L1465.06 690.701L1402.76 829.994L1378.43 819.109C1354.61 808.456 1305.93 786.687 1257.77 765.15C1209.62 743.612 1160.94 721.843 1112.79 700.305C1064.63 678.768 1015.95 656.998 967.797 635.461C919.122 613.692 870.965 592.154 822.808 570.616C774.134 548.847 725.977 527.31 677.302 505.54C629.145 484.003 580.988 462.465 532.313 440.696C484.156 419.158 435.999 397.621 387.324 375.852C339.167 354.314 290.492 332.545 266.673 321.892L242.335 311.007L273.368 241.62Z" fill="#5B09C2"/>
<g filter="url(#filter0_d)">
<path fill-rule="evenodd" clip-rule="evenodd" d="M23.9795 278.426L51.4934 278.751C78.3125 279.478 133.047 281.224 182.388 300.905C232.277 320.732 276.627 359.042 335.805 342.013C395.53 325.13 469.536 252.76 535.321 211.075C601.507 170.083 659.069 159.081 703.967 197.538C748.463 235.3 779.6 322.922 826.259 354.804C872.224 387.087 933.564 364.177 994.357 341.12C1055.3 317.515 1116.64 294.605 1162.6 326.888C1208.71 358.623 1240.4 446.393 1255.77 489.856L1271.68 533.467L1232.19 680.857L1206.44 673.956C1181.23 667.203 1129.73 653.403 1078.77 639.749C1027.82 626.095 976.311 612.295 925.355 598.641C874.398 584.987 822.894 571.187 771.938 557.533C720.434 543.733 669.478 530.079 618.521 516.425C567.017 502.625 516.061 488.971 464.557 475.17C413.6 461.517 362.644 447.863 311.14 434.063C260.184 420.409 209.227 406.755 157.723 392.955C106.767 379.301 55.2627 365.5 30.0585 358.747L4.30644 351.847L23.9795 278.426Z" fill="#7000FF"/>
</g>
<defs>
<filter id="filter0_d" x="0.306641" y="15.3892" width="1323.89" height="665.468" filterUnits="userSpaceOnUse" color-interpolation-filters="sRGB">
<feFlood flood-opacity="0" result="BackgroundImageFix"/>
<feColorMatrix in="SourceAlpha" type="matrix" values="0 0 0 0 0 0 0 0 0 0 0 0 0 0 0 0 0 0 127 0"/>
<feOffset dy="-4"/>
<feGaussianBlur stdDeviation="2"/>
<feColorMatrix type="matrix" values="0 0 0 0 0 0 0 0 0 0 0 0 0 0 0 0 0 0 0.25 0"/>
<feBlend mode="normal" in2="BackgroundImageFix" result="effect1_dropShadow"/>
<feBlend mode="normal" in="SourceGraphic" in2="effect1_dropShadow" result="shape"/>
</filter>
</defs>
</svg>
