<svg width="1428" height="1283" viewBox="0 0 1428 1283" fill="none" xmlns="http://www.w3.org/2000/svg">
<path fill-rule="evenodd" clip-rule="evenodd" d="M1142.61 1282.96L1148.37 1241.27C1154.13 1199.59 1164.84 1115.4 1143.14 1065.24C1120.64 1014.27 1065.73 997.322 1033.74 955.836C1002.56 915.167 994.284 849.958 948.87 823.522C903.456 797.087 819.269 807.792 802.322 752.889C784.56 697.169 834.038 575.842 802.041 534.356C770.861 493.687 658.206 532.859 574.836 544.38C491.465 555.901 435.746 538.139 404.566 497.469C372.569 455.984 365.112 391.591 342.604 340.616C320.914 290.458 284.172 253.717 266.21 235.754L248.248 217.792L447.52 18.5194L465.483 36.4817C483.445 54.4441 520.186 91.1852 556.111 127.11C592.852 163.851 628.777 199.776 665.518 236.517C701.443 272.442 738.184 309.183 774.108 345.107C810.033 381.032 846.774 417.773 882.699 453.698C919.44 490.439 955.365 526.364 992.106 563.105C1028.03 599.03 1064.77 635.771 1100.7 671.696C1136.62 707.62 1173.36 744.361 1209.29 780.286C1246.03 817.027 1281.95 852.952 1318.69 889.693C1354.62 925.618 1391.36 962.359 1409.32 980.321L1427.28 998.284L1142.61 1282.96Z" fill="#5B09C2"/>
<g filter="url(#filter0_d)">
<path fill-rule="evenodd" clip-rule="evenodd" d="M853.409 1103.54L859.066 1066.77C864.723 1030 875.329 955.755 856.945 911.914C837.853 867.366 789.77 853.224 762.192 817.162C735.322 781.806 728.958 724.531 689.36 701.903C649.762 679.276 575.516 689.883 561.374 641.799C546.525 593.009 591.78 485.529 564.203 449.466C537.332 414.111 437.63 450.173 364.091 461.487C290.552 472.801 241.762 457.952 214.892 422.596C187.315 386.534 181.658 329.965 162.566 285.418C144.181 241.577 112.361 209.757 96.8049 194.201L81.2486 178.644L259.439 0.453479L274.996 16.0098C290.552 31.5662 322.372 63.386 353.485 94.4987C385.304 126.318 416.417 157.431 448.237 189.251C479.35 220.364 511.17 252.183 542.282 283.296C573.395 314.409 605.215 346.229 636.327 377.341C668.147 409.161 699.26 440.274 731.08 472.094C762.192 503.206 794.012 535.026 825.125 566.139C856.238 597.252 888.057 629.071 919.17 660.184C950.99 692.004 982.103 723.117 1013.92 754.936C1045.04 786.049 1076.85 817.869 1092.41 833.425L1107.97 848.982L853.409 1103.54Z" fill="#7000FF"/>
</g>
<defs>
<filter id="filter0_d" x="0.880859" y="0.453613" width="1111.09" height="1111.09" filterUnits="userSpaceOnUse" color-interpolation-filters="sRGB">
<feFlood flood-opacity="0" result="BackgroundImageFix"/>
<feColorMatrix in="SourceAlpha" type="matrix" values="0 0 0 0 0 0 0 0 0 0 0 0 0 0 0 0 0 0 127 0"/>
<feOffset dy="4"/>
<feGaussianBlur stdDeviation="2"/>
<feColorMatrix type="matrix" values="0 0 0 0 0 0 0 0 0 0 0 0 0 0 0 0 0 0 0.25 0"/>
<feBlend mode="normal" in2="BackgroundImageFix" result="effect1_dropShadow"/>
<feBlend mode="normal" in="SourceGraphic" in2="effect1_dropShadow" result="shape"/>
</filter>
</defs>
</svg>
